<?xml version="1.0" standalone="no"?>
<!DOCTYPE svg PUBLIC "-//W3C//DTD SVG 1.1//EN" "http://www.w3.org/Graphics/SVG/1.1/DTD/svg11.dtd" >
<svg xmlns="http://www.w3.org/2000/svg">
<metadata>Generated by IcoMoon</metadata>
<defs>
<font id="oijalite" horiz-adv-x="1024">
<font-face units-per-em="1024" ascent="960" descent="-64" />
<missing-glyph horiz-adv-x="1024" />
<glyph unicode="&#x20;" horiz-adv-x="512" d="" />
<glyph unicode="&#xe900;" glyph-name="address" d="M603.49 89.717c148.66 187.857 184.967 447.424 193.637 544.243 1.806 12.644 2.529 25.469 2.529 38.294 0 159.136-128.61 287.927-287.023 287.927s-286.843-128.79-286.843-287.746h-0.542c0 0 0.181-4.877 0.723-13.909 0.361-6.322 0.723-12.644 1.445-18.786 8.309-91.941 44.977-359.095 196.346-551.829-101.334-9.935-186.231-34.862-186.231-73.517 0-50.757 147.576-78.213 286.301-78.213s286.301 27.456 286.301 78.213c0.181 41.003-96.277 66.834-206.642 75.323zM287.023 658.887c0 126.803 102.418 229.402 228.86 229.402s228.86-102.599 228.86-229.402-102.418-229.402-228.86-229.402-228.86 102.599-228.86 229.402zM719.275-28.054c-52.022-13.186-121.384-20.411-195.263-20.411s-143.060 7.225-195.263 20.411c-55.996 14.089-75.685 31.249-75.685 42.629 0 11.199 19.869 28.359 75.685 42.629 30.527 7.767 67.014 13.367 106.753 16.799 17.883-21.495 37.571-42.268 58.705-61.234 0.903-0.903 1.987-1.987 3.071-2.709 0.903-0.723 1.806-1.445 2.709-2.529v0.542c3.613-2.168 7.767-3.251 12.464-3.251 4.516 0 9.032 1.264 12.644 3.432v-0.723c24.385 20.953 46.603 43.893 67.014 67.917 47.687-3.071 91.58-9.393 127.345-18.244 55.996-14.089 75.685-31.249 75.685-42.629-0.181-11.38-20.050-28.54-75.865-42.629zM642.506 514.382v158.233c0 3.251-1.264 6.503-3.613 8.851l-116.688 121.204c-2.348 2.529-5.78 3.793-9.032 3.793v0c-3.432 0-6.683-1.264-9.032-3.793l-117.591-118.856c-2.529-2.529-3.613-5.6-3.613-9.032v-159.136c0-9.032 7.225-16.257 16.257-16.257h228.499c8.128-0.181 14.812 6.503 14.812 14.992zM624.443 517.633h-62.679v85.077c0 2.709-2.348 4.877-4.877 4.877h-86.161c-4.335 0-7.948-3.613-7.948-7.948v-82.007h-61.053v154.982l111.811 113.256 111.088-115.424-0.181-152.814zM512.813 828.5l-153.717-154.621c-2.348-2.168-5.419-3.432-8.67-3.432-7.045 0-12.644 5.78-12.644 12.825 0 4.696 2.529 8.851 6.322 11.019l156.788 158.233c2.348 3.793 6.503 6.322 11.199 6.322 3.432 0 6.503-1.264 8.851-3.432v0l0.361-0.361c0.181-0.181 0.181-0.181 0.361-0.361l160.762-164.736c1.806-2.168 2.709-4.877 2.709-7.767 0-7.045-5.78-12.644-12.644-12.644-4.335 0-8.128 2.348-10.477 5.6l-149.202 153.356z" />
<glyph unicode="&#xe901;" glyph-name="broken-neutral" d="M327.304 723.915l283.591-281.785 33.597 31.791-317.189 306.532-314.841-297.861c-7.406-3.974-12.464-11.56-12.464-20.411 0-12.825 10.657-23.121 23.843-23.121 7.406 0 13.909 3.251 18.244 8.309l285.217 276.547zM945.425 846.022l19.147-20.231c5.78-5.961 15.354-6.141 21.315-0.361l21.676 20.773c-0.723 0-1.445-0.181-2.168-0.181h-59.97zM628.236 430.75c13.367-1.445 25.65 7.767 27.095 20.773 1.084 9.212-3.432 17.521-10.838 22.398l-33.597-31.972c3.974-5.78 9.754-10.477 17.341-11.199zM1024 864.627c0 10.115-8.309 18.605-18.605 18.605h-163.472v0.361h-33.236v-0.361h-167.265c-10.115 0-18.605-8.309-18.605-18.605 0-9.754 7.587-17.702 16.979-18.424l-0.181 0.181h56.718l-0.181-0.181h104.405l0.361-67.014h-57.26c-10.115 0-18.605-8.309-18.605-18.605s8.309-18.605 18.605-18.605h57.441l1.264-89.774h44.797l-1.445 89.774h69.904c10.115 0 18.605 8.128 18.605 18.605 0 10.115-8.309 18.605-18.605 18.605l-71.349-0.361 0.542 67.376h100.612l62.318 0.181c9.032 0.903 16.257 8.67 16.257 18.244zM919.414 480.423l-47.687 1.264 46.422 112.533 0.361 1.445c2.168 10.838-1.806 17.702-4.516 20.953-7.587 9.032-18.786 9.393-22.94 9.393l-82.007 2.168c-9.032 0.181-16.437-4.877-19.508-12.825l-65.75-176.116c-2.529-6.503-1.626-14.089 2.529-19.689 4.155-5.961 10.838-9.393 17.883-9.754l57.441-2.529-47.867-221.635 181.715 238.253-13.005 9.393 13.186-8.67 7.406 10.296c6.503 8.67 7.767 20.231 2.89 29.443-5.058 9.573-15.173 15.715-26.553 16.076zM906.951 443.936l-84.716-110.727 22.94 106.934-81.645 3.432 55.815 149.744 59.428-1.626-44.255-107.837c-3.432-7.948-2.89-16.979 1.806-24.205 4.877-7.406 13.186-11.922 22.218-12.283l49.674-1.445-1.445-1.987h0.181zM639.977 846.022l15.896-18.063c5.238-5.419 14.27-5.961 19.869-0.903l20.592 18.786h-54.912c-0.542 0.181-0.903 0.181-1.445 0.181zM811.397 80.144c0.361-8.128-5.238-21.134-22.037-21.134l-160.581 0.361h-252.523c-16.618 0-18.966 9.573-18.966 25.83l-0.542 43.713 185.147 0.181c14.992 0 27.275 11.741 27.456 26.733v286.301c0 5.961-2.168 11.38-6.503 15.715l-218.022 219.648c-4.516 4.335-10.296 6.864-16.618 6.864h-0.181c-6.141 0-12.283-2.529-16.437-6.683l-220.009-215.313c-4.335-4.335-6.683-9.935-6.683-15.896v-288.649c0-15.896 13.367-28.72 29.804-28.72h189.663l0.723-51.299c0-34.681 36.307-65.027 72.072-65.027h413.285c35.584 0 64.485 28.179 64.485 62.499l0.361 195.805-43.893-59.97v-130.958zM118.133 442.31l209.713 205.559 208.268-209.713v-277.089h-117.952v154.801c0 4.696-4.155 8.67-9.212 8.67h-160.762c-8.128 0-14.812-6.503-14.812-14.451v-149.021h-115.062l-0.181 281.243z" />
<glyph unicode="&#xe902;" glyph-name="device" d="M1007.924 456.399c0-20.050-16.076-36.126-36.126-36.126-12.464 0-23.482 6.141-29.985 15.896l-424.665 437.49-437.67-440.018c-6.503-5.961-14.992-9.573-24.385-9.573-20.050 0-36.126 16.257-36.126 36.307 0 13.367 7.045 25.108 17.883 31.249l446.16 450.495c6.683 10.838 18.605 17.883 32.152 17.883 9.573 0 18.605-3.613 25.288-9.573v0l1.084-1.084c0.542-0.542 0.723-0.723 1.084-1.084l457.72-469.281c4.516-6.503 7.587-14.089 7.587-22.579zM876.243 454.232c6.503-6.683 10.115-15.715 10.115-25.108v-450.314c0-23.663-19.147-42.81-42.268-42.81h-650.635c-25.288 0-46.061 20.773-46.061 46.061v453.927c0 9.573 3.613 18.605 10.657 25.469l334.53 338.503c6.683 6.864 16.076 10.838 25.83 10.838h0.181c9.573 0 19.147-4.155 25.83-11.019l331.82-345.548zM834.518 422.621l-316.466 328.93-318.273-322.247v-441.102h174.129v233.557c0 12.644 10.296 22.94 22.94 22.94h244.936c7.767 0 14.27-6.503 14.27-14.27v-242.227h178.464v434.419z" />
<glyph unicode="&#xe903;" glyph-name="distribution-transformer" d="M247.465 677.492c-18.605 0-33.778-15.173-33.778-33.778v-404.976c0-18.605 15.173-33.778 33.778-33.778s33.778 15.173 33.778 33.778v404.976c0 18.966-14.812 33.778-33.778 33.778zM280.159 238.738c0-18.244-14.451-32.694-32.694-32.694s-32.694 14.812-32.694 32.694v404.976c0 18.244 14.812 32.694 32.694 32.694 18.244 0 32.694-14.451 32.694-32.694v-404.976zM1010.272 637.031c-8.851 8.49-19.869 13.186-32.152 13.186h-0.361l-54.37-0.361v47.325c20.231 4.335 35.765 22.218 36.126 43.893 0.361 11.199-3.974 21.676-11.741 29.804s-18.244 12.464-29.443 12.464h-335.071v75.865c0 5.419-4.516 9.935-9.935 9.935h-27.095v48.59c0 4.877-3.974 8.67-8.67 8.67h-47.687c-4.696 0-8.309-3.793-8.309-8.309v-48.771h-25.469c-4.877 0-8.851-3.974-8.851-8.851v-76.949h-130.777v75.865c0 5.419-4.516 9.935-9.935 9.935h-27.095v48.409c0 4.877-3.974 8.67-8.67 8.67h-47.687c-4.696 0-8.309-3.793-8.309-8.309v-48.771h-25.469c-4.877 0-8.851-3.974-8.851-8.851v-76.949h-67.014c-24.566 0-44.977-19.869-44.977-44.977 0-11.56 4.696-22.218 12.825-30.346 5.78-5.78 12.825-9.393 20.231-11.199v-46.242h-55.273c-12.102 0-23.301-4.696-31.791-13.186s-13.186-19.869-13.186-31.791v-270.767c0-24.385 19.869-43.893 43.893-43.893l90.316 0.723 1.445-66.472-0.723-90.496c0-24.024 20.231-44.255 44.255-44.255h365.779l10.477 1.084h289.191c23.301 1.987 43.171 22.218 43.171 44.255l-1.084 90.135 0.723 65.93h90.135c24.566 0 44.977 19.869 44.977 44.977v268.057c0 12.102-4.696 23.663-13.547 31.972zM282.146 238.738c0.361-19.328-15.534-34.862-34.862-34.862s-34.862 15.534-34.862 34.862v404.976c0 19.328 15.534 34.862 34.862 34.862s34.862-15.534 34.862-34.862v-404.976zM415.994 239.461c0-19.508-15.534-35.043-34.862-35.043s-34.862 15.534-34.862 34.862v405.156c0 19.328 15.534 34.862 34.862 34.862s34.862-15.534 34.862-34.862v-404.976zM549.662 234.403c0.361-19.328-15.534-34.862-34.862-34.862s-34.862 15.534-34.862 34.862v404.976c0 19.328 15.534 34.862 34.862 34.862s34.862-15.534 34.862-34.862v-404.976zM680.981 238.738c0-19.328-15.534-34.862-34.862-34.862s-34.862 15.534-34.862 34.862v404.976c0 19.328 15.534 34.862 34.862 34.862s34.862-15.534 34.862-34.862v-404.976zM816.093 238.738c0.361-19.328-15.534-34.862-34.862-34.862s-34.862 15.534-34.862 34.862v404.976c0 19.328 15.534 34.862 34.862 34.862s34.862-15.534 34.862-34.862v-404.976zM646.3 677.492c-18.605 0-33.778-15.173-33.778-33.778v-404.976c0-18.605 15.173-33.778 33.778-33.778s33.778 15.173 33.778 33.778v404.976c0 18.966-15.173 33.778-33.778 33.778zM678.994 238.738c0-18.244-14.812-32.694-32.694-32.694-18.244 0-32.694 14.812-32.694 32.694v404.976c0 18.244 14.812 32.694 32.694 32.694s32.333-14.451 32.694-32.694v-404.976zM874.979 1.93c0-17.521-14.451-32.152-32.152-32.152h-651.538c-17.521 0-32.152 14.451-32.152 32.152 0 17.521 14.451 32.152 32.152 32.152h651.718c17.521-0.181 31.972-14.631 31.972-32.152zM849.51 783.884h-136.196v76.949c0 4.877 3.974 8.851 8.851 8.851h25.469v48.771c0 4.696 3.793 8.309 8.309 8.309h47.687c4.877 0 8.67-3.974 8.67-8.67v-48.409h27.095c5.419 0 9.935-4.516 9.935-9.935v-75.865h0.181zM514.98 673.157c-18.605 0-33.778-15.173-33.778-33.778v-404.976c0-18.605 15.173-33.778 33.778-33.778s33.778 15.173 33.778 33.778v404.976c0 18.786-15.354 33.778-33.778 33.778zM547.675 234.403c0-18.244-14.812-32.694-32.694-32.694-18.244 0-32.694 14.812-32.694 32.694v404.976c0 18.244 14.812 32.694 32.694 32.694 18.244 0 32.694-14.451 32.694-32.694v-404.976zM781.412 677.492c-18.605 0-33.778-15.173-33.778-33.778v-404.976c0-18.605 15.173-33.778 33.778-33.778s33.778 15.173 33.778 33.778v404.976c0 18.966-15.354 33.778-33.778 33.778zM814.106 238.738c0-18.244-14.812-32.694-32.694-32.694-18.244 0-32.694 14.812-32.694 32.694v404.976c0 18.244 14.812 32.694 32.694 32.694 18.244 0 32.694-14.451 32.694-32.694v-404.976zM381.132 678.215c-18.605 0-33.778-15.173-33.778-33.778v-404.976c0-18.605 15.173-33.778 33.778-33.778s33.778 15.173 33.778 33.778v404.976c0 18.424-15.173 33.778-33.778 33.778zM414.007 239.1c0-18.244-14.451-32.694-32.694-32.694s-32.694 14.812-32.694 32.694v404.976c0 18.244 14.812 32.694 32.694 32.694s32.333-14.451 32.694-32.333v-405.337z" />
<glyph unicode="&#xe904;" glyph-name="feeder" d="M910.791 623.673h-173.056v81.92c0 10.581-6.713 19.797-17.294 19.797l-52.565 0.341c-10.581 0-19.001-8.533-19.001-19.001v-82.603c-12.516 5.689-24.121 12.629-35.044 20.708-50.062 36.978-74.752 92.501-86.585 132.437-3.186 10.809-5.689 20.935-7.623 30.265 4.324 2.731 7.168 7.623 7.168 13.084h48.242c9.785 0 17.977 7.964 17.977 17.977v0.114c0 9.785-7.964 17.977-17.977 17.977h-61.781c0 0.114 0 0.114 0 0.114l-6.030-0.114h-139.492v82.603c0 10.581-8.533 19.001-19.001 19.001h-52.452c-10.581 0-15.132-9.33-15.132-19.797v-82.261h-168.391c-9.785 0-17.977-7.964-17.977-17.977v-0.114c0-9.785 7.964-17.977 17.977-17.977h78.507c-0.114-0.569-0.114-1.365-0.114-1.934 0-7.054 4.779-13.084 11.264-14.905 3.868-21.39 10.468-47.332 21.276-74.183 1.365-3.413 2.731-6.827 4.324-10.012h-52.11c-5.575 0-10.012-4.437-10.012-10.012v-7.282c0-5.575 4.437-10.012 10.012-10.012h65.991c0.569-1.138 1.252-2.048 1.82-3.186 18.66-30.948 15.36-24.462 37.319-47.559v-452.722c0-10.581 7.509-20.821 17.977-20.821l49.721 1.024c10.581 0 19.001 8.533 19.001 19.001v402.432c24.121-7.396 50.517-11.036 79.076-11.036 18.318 0 37.319 1.479 57.344 4.437-3.186-2.958-5.12-6.94-5.12-11.492 0-8.647 7.054-15.588 15.588-15.588 8.647 0 15.588 7.054 15.588 15.588 0 6.372-3.868 11.833-9.444 14.336 2.503 0.455 5.12 1.024 7.623 1.479h120.604v-101.035h-137.444c-5.575 0-10.012-4.437-10.012-10.012v-7.282c0-5.575 4.437-10.012 10.012-10.012h137.444v-504.149c0-10.581 8.533-19.001 19.001-19.001l49.835-0.114c10.581 0 19.911 9.444 19.911 20.025v503.239h109.909c5.575 0 10.012 4.437 10.012 10.012v7.282c0 5.575-4.437 10.012-10.012 10.012h-109.909v101.035h173.17c9.785 0 17.977 7.964 17.977 17.977v0.114c-0.114 9.899-8.078 17.863-18.091 17.863zM234.837 734.037c-10.468 25.486-16.612 50.404-20.366 70.997 4.551 2.617 7.737 7.737 7.737 13.426 0 0.569 0 1.365-0.114 1.934h59.051v-101.035h-39.822c-2.276 4.779-4.437 9.671-6.485 14.677zM256.114 692.053h24.917l-0.796-32.54c-11.605 16.156-8.192 6.827-24.121 32.54zM367.73 692.053h144.27c5.575 0 10.012 4.437 10.012 10.012v7.282c0 5.575-4.437 10.012-10.012 10.012h-144.27v101.035h128.114c0-7.396 5.12-13.54 11.947-15.132 1.934-9.557 4.437-20.252 7.851-31.403 12.402-41.756 38.343-100.011 91.136-138.923 5.461-4.096 11.15-7.851 17.067-11.378h-175.559c-9.785 0-17.977-7.964-17.977-17.977v-0.114c0-6.144 3.072-11.492 7.737-14.791-25.486 0.569-48.924 4.437-70.542 11.378v89.884h0.228v0.114zM827.62 586.468c8.647 0 15.588-7.054 15.588-15.588 0-8.647-7.054-15.588-15.588-15.588s-15.588 7.054-15.588 15.588c-0.114 8.533 6.94 15.588 15.588 15.588z" />
<glyph unicode="&#xe905;" glyph-name="fleet" horiz-adv-x="947" d="M472.49 794.745c-191.714 0-347.666-155.964-347.666-347.666s155.964-347.63 347.666-347.63 347.679 155.915 347.679 347.63-155.964 347.666-347.679 347.666zM402.44 765.656c-34.484-23.006-62.786-57.305-84.121-102.002h-89.528c44.681 50.163 104.132 86.295 171.5 101.585l2.186 0.417zM211.205 642.111h97.75q-7.533-18.901-13.617-39.867c-18.004-62.442-21.089-120.792-21.556-144.412h-127.269c2.291 69.721 26.236 133.434 65.283 185.096l-0.592-0.817zM146.514 436.325h127.269c0.479-23.436 3.588-80.962 21.568-142.557q5.862-20.105 13.113-38.245h-99.79c-36.931 50.145-59.906 112.585-62.146 180.273l-0.014 0.528zM225.731 234.005h92.17c23.116-48.297 54.491-84.44 93.104-107.274-74.544 14.729-138.371 53.113-184.928 106.865l-0.346 0.409zM461.773 127.837c-51.37 15.276-91.531 50.866-120.018 106.168h120.215zM462.081 255.524h-130.267c-5.104 11.544-10.399 26.085-14.841 40.993l-0.718 2.806c-17.131 58.424-20.265 114.402-20.806 137.014h166.914zM462.462 457.844h-167.136c0.516 22.735 3.613 79.254 20.683 138.452 5.294 18.48 10.781 33.7 17.12 48.468l-1.008-2.641h130.636zM462.855 663.617h-120.682c28.696 55.99 69.165 91.777 120.878 106.832zM716.249 663.617h-89.43c-22.625 46.097-52.918 80.84-89.921 103.231 71.83-14.882 133.381-51.653 179.003-102.915l0.287-0.328zM484.484 766.762c50.386-14.993 90.007-49.575 118.396-103.231h-118.592zM484.201 642.111h129.038c5.689-12.6 11.444-28.211 16.203-44.251l0.708-2.78c17.131-58.522 20.265-114.611 20.806-137.248h-167.049zM483.808 436.325h167.136c-0.516-22.748-3.613-79.254-20.683-138.464-4.964-17.305-9.957-31.37-15.669-45.060l1.007 2.723h-132.086zM483.427 234.005h122.439c-28.794-57.957-69.828-94.923-122.599-110.285zM544.419 128.943c35.086 23.596 63.757 58.928 85.141 105.099h89.712c-44.637-51.53-104.543-88.755-172.645-104.664l-2.208-0.435zM736.306 255.524h-97.639q6.722 17.328 12.289 36.389c18.016 62.442 21.101 120.792 21.556 144.425h125.954c-2.242-68.222-25.219-130.668-62.789-181.71l0.629 0.896zM798.465 457.844h-125.991c-0.467 23.448-3.576 81.11-21.568 142.79-4.943 17.032-9.864 30.811-15.468 44.233l1.016-2.744h97.32c38.457-50.849 62.403-114.566 64.678-183.767l0.014-0.525zM906.133 257.195c25.525 56.226 40.4 121.926 40.4 191.1s-14.875 134.874-41.602 194.075l1.202-2.976c11.109 9.625 18.094 23.754 18.094 39.514 0 28.825-23.368 52.193-52.193 52.193-6.281 0-12.302-1.109-17.88-3.143l0.363 0.116c-77.161 104.095-194.224 174.842-328.15 189.571l-2.115 0.189c-4.901 24.191-25.992 42.146-51.278 42.146-25.307 0-46.413-17.986-51.233-41.873l-0.056-0.335c-136.081-15.093-253.113-86.040-329.246-189.051l-0.908-1.287c-5.147 1.864-11.087 2.942-17.279 2.942-28.839 0-52.218-23.379-52.218-52.218 0-15.745 6.968-29.862 17.989-39.436l0.064-0.054c-25.329-56.041-40.088-121.502-40.088-190.411 0-69.197 14.882-134.919 41.621-194.138l-1.202 2.975c-11.349-9.642-18.502-23.925-18.502-39.879 0-28.846 23.384-52.23 52.23-52.23 6.47 0 12.664 1.176 18.382 3.327l-0.36-0.119c77.052-103.822 193.81-174.425 327.393-189.297l2.134-0.193c4.68-24.451 25.896-42.679 51.37-42.679s46.69 18.228 51.317 42.352l0.052 0.327c136.019 14.968 253.047 85.739 329.276 188.572l0.902 1.274c5.131-1.852 11.051-2.923 17.222-2.923 28.832 0 52.205 23.373 52.205 52.205 0 15.676-6.91 29.739-17.85 39.308l-0.061 0.052zM871.722 270.713c-29.175-0.013-52.821-23.667-52.821-52.844 0-13.752 5.253-26.278 13.863-35.679l-0.036 0.040c-72.606-97.161-182.101-163.306-307.342-177.624l-2.055-0.191c-7.029 21.445-26.863 36.66-50.251 36.66s-43.223-15.215-50.145-36.287l-0.106-0.373c-127.169 14.6-236.532 80.715-308.242 176.621l-0.836 1.169c8.221 9.272 13.242 21.543 13.242 34.988 0 29.17-23.635 52.82-52.799 52.844h-0.002c-0.017 0-0.036 0-0.056 0-3.841 0-7.585-0.416-11.189-1.206l0.344 0.063c-23.73 52.792-37.553 114.433-37.553 179.303 0 64.492 13.663 125.793 38.252 181.166l-1.129-2.848c3.41-0.784 7.327-1.233 11.348-1.233 29.185 0 52.844 23.659 52.844 52.844 0 13.69-5.206 26.164-13.746 35.551l0.038-0.043c72.471 97.348 181.913 163.683 307.153 178.173l2.073 0.195c6.976-21.581 26.89-36.915 50.386-36.915s43.411 15.335 50.282 36.542l0.105 0.374c127.293-14.49 236.792-80.614 308.574-176.586l0.835-1.167c-8.463-9.334-13.644-21.781-13.644-35.438 0-29.185 23.659-52.844 52.844-52.844 4.047 0 7.987 0.455 11.773 1.316l-0.354-0.068c23.616-52.688 37.372-114.195 37.372-178.915s-13.756-126.227-38.503-181.756l1.131 2.841c-3.488 0.831-7.494 1.31-11.61 1.315h-0.003z" />
<glyph unicode="&#xe906;" glyph-name="grid" d="M588.345 525.483l-193.991 136.988 0.341 18.091-0.683-0.569v97.849h2.503l84.537 0.114c6.827 0 12.857 4.21 15.36 10.695 2.389 6.599 0.683 13.653-4.665 18.318l-128.114 111.844h-148.366l-135.168-113.664c-4.892-4.21-6.713-10.923-4.551-16.953 2.162-6.144 7.737-10.126 14.222-10.126l95.232-0.341v-0.114h2.048l-1.024-119.239-171.691-123.904c-6.94-5.006-9.785-13.653-7.054-21.845 2.617-7.964 9.899-13.312 18.204-13.312 0.114 0 0.114 0 0.114 0l158.948 0.683-21.163-195.129-0.455-1.252-1.593-1.593 0.683-0.683-132.779-340.309c-2.162-5.575-1.479-11.947 1.934-16.839 3.3-4.779 8.875-7.737 14.677-7.737l490.496-0.341c4.437 0 8.761 2.276 11.492 6.030 2.731 3.641 3.3 8.647 1.707 12.857l-127.772 346.226 0.569 0.569-1.252 1.252-0.455 1.252-27.193 193.081 186.027-0.228c6.713 0 12.629 4.324 14.677 10.809 2.048 6.599-0.228 13.54-5.803 17.522zM206.62 290.076h169.415l-85.561-82.148-83.854 82.148zM511.090-40.448l-445.44 0.341 224.825 215.609 220.615-215.95zM204.8 313.287l86.244 87.609 87.040-87.609h-173.284zM225.394 499.996l130.276-0.455-64.512-65.65-65.764 66.105zM216.747 651.89l75.093 55.751 71.566-51.655-75.548-59.051-71.111 54.955zM345.884 522.866l-114.916 0.341 56.775 44.601 58.14-44.942zM311.296 722.204l59.506 44.26v-87.154l-59.506 42.894zM291.612 736.427l-57.003 41.188 112.64 0.114-55.637-41.301zM368.185 801.166l-155.534-0.341 16.612 94.663h120.491l18.432-94.322zM272.043 721.977l-62.578-46.535 0.796 91.25 61.781-44.715zM209.124 535.609l0.228 92.615 59.392-45.852-59.62-46.763zM306.631 582.485l63.829 49.948-1.593-97.963-62.236 48.014zM391.964 800.939l-14.677 74.98 85.788-74.866-71.111-0.114zM111.73 801.28l90.908 76.459-13.426-76.686-77.483 0.228zM186.368 629.931l-0.341-106.496-148.252-0.683 148.594 107.179zM206.279 486.229l68.608-68.949-85.447-86.812 16.839 155.762zM273.749 191.886l-207.189-198.77 113.323 290.702 93.867-91.932zM511.090-8.135l-203.776 199.68 96.142 92.16 107.634-291.84zM307.541 417.28l64.398 65.308 21.39-151.666-85.788 86.357zM392.078 520.704l1.934 113.664 161.223-113.892-163.157 0.228zM1011.257 653.028l-152.917 105.927 0.341 17.977-0.455-0.341v68.153h2.503v0.114h64.171c6.485 0 12.174 4.096 14.45 10.126 2.276 6.144 0.455 12.857-4.437 17.067l-102.286 87.495h-119.353l-107.634-88.974c-4.665-3.868-6.485-10.354-4.437-16.043s7.509-9.557 13.54-9.557l72.363-0.341v-0.114h2.276l-0.796-88.519-135.396-95.801c-6.372-4.437-8.875-12.402-6.599-19.797 2.503-7.396 9.216-12.288 16.953-12.288l123.335 0.569-16.384-148.594-0.114-0.341-2.617-2.617 1.138-1.138-104.562-263.054c-2.048-5.006-1.365-10.809 1.707-15.36s8.078-7.282 13.653-7.282l388.892-0.228c4.437 0 8.533 2.162 11.036 5.803 2.617 3.641 3.186 8.306 1.593 12.402l-100.693 267.719 1.138 1.138-2.503 2.503-21.049 146.773 144.725-0.228c6.485 0 12.174 4.21 14.108 10.354s-0.341 12.743-5.689 16.498zM713.159 465.749h122.425l-61.895-58.254-60.53 58.254zM942.421 213.276l-340.764 0.228 172.032 161.906 168.732-162.133zM712.476 488.96l61.781 61.668 62.464-61.668h-124.245zM774.144 583.396l-45.852 45.284 90.908-0.341-45.056-44.942zM719.417 749.397l55.182 40.277 52.338-37.092-55.524-42.667-51.996 39.481zM809.87 651.662l-76.004 0.228 37.547 28.786 38.457-29.013zM794.396 804.124l40.619 29.582v-58.368l-40.619 28.786zM774.485 818.233l-37.092 26.283 73.273 0.114-36.181-26.396zM832.398 868.068l-117.532-0.114 12.288 68.267h91.705l13.54-68.153zM754.688 803.897l-42.667-31.061 0.569 60.985 42.098-29.924zM711.68 663.836l0.114 62.123 40.505-30.834-40.619-31.289zM790.528 695.353l43.918 33.678-1.024-66.219-42.894 32.54zM856.064 868.068l-9.785 49.266 57.572-49.266h-47.787zM639.204 868.068l61.099 50.404-9.102-50.745-51.996 0.341zM688.697 727.552l-0.228-75.662-107.406-0.455 107.634 76.117zM708.608 615.595l49.152-48.697-61.326-61.099 12.174 109.796zM756.85 391.566l-154.51-145.522 84.537 212.764 69.973-67.243zM942.080 245.931l-151.552 145.408 71.566 67.356 79.986-212.764zM790.642 567.012l45.966 45.739 15.246-106.155-61.212 60.416zM856.633 649.728l1.365 81.237 117.646-81.351-119.012 0.114z" />
<glyph unicode="&#xe907;" glyph-name="grid-alt" d="M427.691 303.388l1.479 1.365-3.186 3.186-26.055 184.661 178.176-0.228c8.078 0 15.246 5.234 17.749 12.971 2.503 7.851-0.341 16.27-7.054 20.935l-188.644 133.348 0.341 23.211-0.455-0.341v84.764l81.806 0.114c8.192 0 15.36 5.006 18.204 12.743 2.958 7.737 0.796 16.27-5.461 21.732l-126.407 110.364h-147.797l-133.12-112.071c-5.916-5.006-8.078-12.971-5.461-20.366 2.617-7.282 9.33-12.060 17.067-12.060l89.088-0.455v-0.114h2.731l-0.796-89.657v-4.21l-0.114-17.749-166.912-120.377c-7.964-5.689-11.15-15.815-8.192-25.145 2.958-9.216 11.492-15.36 21.163-15.36h0.114l151.78 0.683-20.366-186.823-0.114-0.341-3.186-3.3 1.365-1.365-129.138-331.093c-2.503-6.485-1.707-13.767 2.276-19.57 3.868-5.689 10.354-9.102 17.18-9.102l480.256-0.341c5.575 0 10.809 2.731 13.995 7.282s3.982 10.468 2.048 15.815l-124.359 336.896zM292.636 560.64l46.876-36.181-92.615 0.341 45.739 35.84zM292.409 598.073l-63.716 49.266 67.812 50.404 64.057-46.194-68.153-53.476zM316.644 579.413l53.362 41.756-1.365-82.034-51.996 40.277zM321.536 716.288l48.924 36.409v-71.68l-48.924 35.271zM296.391 734.492l-45.17 32.654 89.202 0.114-44.032-32.768zM367.275 796.843l-144.043-0.228 15.019 85.788h112.299l16.725-85.561zM271.474 715.947l-51.996-38.684 0.683 75.776 51.314-37.092zM219.022 540.615l0.228 76.686 49.152-38.002-49.38-38.684zM351.004 494.763l-55.068-55.979-55.979 56.434 111.047-0.455zM295.936 396.8l76.914-77.369h-153.031l76.117 77.369zM370.802 289.849l-75.321-72.363-73.842 72.249 149.163 0.114zM502.898-27.136l-419.499 0.341 211.74 203.093 207.758-203.435zM316.53 196.779l87.723 84.196 98.304-266.354-186.027 182.158zM316.757 417.849l55.865 56.775 18.546-131.641-74.411 74.866zM543.744 521.956l-145.749 0.228 1.593 101.604 144.156-101.831zM397.426 796.843l-11.947 60.871 69.632-60.871h-57.685zM129.707 796.956l74.524 62.805-11.036-63.033-63.488 0.228zM189.668 619.008l-0.228-94.094-131.072-0.569 131.3 94.663zM215.495 477.696l59.62-59.961-74.297-75.548 14.677 135.509zM274.091 197.006l-189.212-181.476 103.538 265.444 85.675-83.968zM1002.724 651.89l-148.139 102.628 0.341 22.756-0.455-0.341v56.32h61.781c7.851 0 14.677 4.779 17.408 12.174s0.569 15.36-5.348 20.48l-101.035 86.585h-119.353l-106.382-87.95c-5.689-4.665-7.851-12.516-5.348-19.456s9.102-11.605 16.498-11.605l66.901-0.341v-0.114h2.731l-0.569-60.075v-9.671l-0.114-11.947-130.958-92.615c-7.396-5.234-10.468-14.564-7.737-23.211s10.695-14.336 19.684-14.336h0.114l116.85 0.455-15.588-140.629-4.324-4.21 1.934-1.934-101.49-255.431c-2.389-6.030-1.707-12.857 2.048-18.318 3.641-5.348 9.671-8.647 16.27-8.647l380.7-0.228c5.461 0 10.581 2.731 13.653 7.168s3.755 10.24 1.934 15.246l-97.735 259.982 2.048 1.934-4.21 4.21-19.911 138.695 137.671-0.228c7.851 0 14.677 5.006 16.953 12.516 2.389 7.623-0.341 15.701-6.827 20.139zM717.596 462.222h102.855l-51.883-48.924-50.972 48.924zM925.013 221.924l-316.416 0.228 159.744 150.3 156.672-150.528zM716.686 491.804l52.224 52.11 52.793-52.11h-105.017zM768.796 585.557l-36.523 36.068 72.476-0.228-35.954-35.84zM766.066 709.006l-45.056 34.247 48.469 35.385 45.284-32.085-48.697-37.547zM766.18 671.801l27.42-20.821-54.272 0.228 26.852 20.594zM794.624 796.956l30.265 22.073v-43.463l-30.265 21.39zM769.252 815.047l-25.6 18.204 50.631 0.114-25.031-18.318zM821.589 862.834l-106.724-0.114 10.809 60.188h83.968l11.947-60.075zM743.993 796.615l-32.654-23.78 0.455 46.649 32.199-22.869zM710.997 666.681l0.114 46.876 30.606-23.211-30.72-23.666zM790.528 690.46l33.792 26.055-0.796-51.086-32.996 25.031zM851.854 862.834l-7.168 35.726 41.756-35.726h-34.588zM646.030 862.948l45.625 37.66-6.827-37.888-38.798 0.228zM681.529 715.15l-0.228-63.829-90.567-0.341 90.795 64.171zM707.47 604.558l40.391-39.936-50.404-50.176 10.012 90.112zM746.951 393.045l-137.33-129.252 75.093 188.985 62.236-59.733zM924.9 262.997l-135.054 129.82 63.716 59.961 71.339-189.781zM789.845 564.736l37.66 37.547 12.516-87.040-50.176 49.493zM852.878 649.273l1.138 69.746 100.921-69.973-102.059 0.228z" />
<glyph unicode="&#xe908;" glyph-name="house-panel" d="M54.551 498.125c0-14.565-12.212-26.372-27.275-26.372s-27.275 11.807-27.275 26.372c0 14.565 12.212 26.372 27.275 26.372s27.275-11.807 27.275-26.372zM387.816 819.288c0-15.164-12.778-27.456-28.54-27.456s-28.54 12.292-28.54 27.456c0 15.164 12.778 27.456 28.54 27.456s28.54-12.292 28.54-27.456zM7.225 516.008l334.71 324.414 38.475-36.849-333.446-323.692zM707.714 506.073c0-14.465-12.212-26.192-27.275-26.192s-27.275 11.726-27.275 26.192c0 14.465 12.212 26.192 27.275 26.192s27.275-11.726 27.275-26.192zM702.476 521.607l-324.053 318.273-37.21-36.126 320.44-316.466zM225.428 111.213h-108.56c-16.618 0-30.346 13.367-30.346 29.624v327.666c0 6.141 2.529 11.741 6.864 16.257l251.981 244.394c9.032 8.851 23.482 8.49 32.333-0.181l250.355-249.271c4.155-4.155 6.683-9.935 6.683-16.076v-59.428h-30.527v55.996l-242.588 241.685-244.394-236.808v-323.33h108.198v-30.527zM254.329 147.339v189.663c0 12.825 10.115 23.121 22.579 23.121h107.476zM993.473 91.524h-695.431c-10.838 0-20.592 5.78-26.192 15.173-5.78 9.935-5.6 21.495 0.181 31.249l120.12 205.739c5.419 9.393 15.354 14.992 26.011 14.992h457.178c10.657 0 20.592-5.961 26.192-15.173l118.314-205.739c5.78-9.754 5.6-21.495 0-31.249-5.961-9.212-15.715-14.992-26.372-14.992zM417.981 343.324c-5.058 0-9.935-2.89-12.644-7.406l-119.939-205.739c-2.89-4.877-2.89-10.838 0-16.076 2.709-4.696 7.406-7.406 12.825-7.406h695.431c5.419 0 9.935 2.709 12.644 7.406 2.89 4.877 2.89 10.838 0 15.896l-118.314 205.739c-2.709 4.516-7.406 7.406-12.825 7.406l-457.178 0.181zM492.261 106.076l50.973 239.95 15.019-3.19-50.973-239.95-15.019 3.19zM729.576 346.074l15.019 3.19 50.973-239.95-15.019-3.19-50.973 239.95zM979.565 49.075h-666.169c-4.516 0-8.309 3.793-8.309 8.309v9.935c0 4.516 3.793 8.309 8.309 8.309h666.169c4.516 0 8.309-3.793 8.309-8.309v-9.935c0-4.516-3.793-8.309-8.309-8.309zM420.149 329.235l110.185 0.542-21.315-90.496c-1.626-7.045-7.406-11.56-14.089-11.56h-140.351l54.189 94.651c2.529 4.696 6.141 6.864 11.38 6.864zM360.179 219.050l133.667-0.542c5.419 0 9.212-3.974 7.948-9.393l-22.037-91.219h-177.019c-3.071 0-4.877 3.432-3.432 6.141l49.674 88.509c2.529 4.335 6.322 6.503 11.199 6.503zM929.168 218.508h-131.861c-5.058 0-10.115-3.974-8.851-9.393l22.037-91.219h175.213c3.793 0 6.322 4.155 4.335 7.587l-48.771 86.703c-2.529 4.696-7.045 6.322-12.102 6.322zM870.283 328.874h-108.921l20.231-90.316c1.445-6.503 7.406-11.019 13.909-11.019h140.351l-52.925 94.109c-2.709 4.516-7.406 7.225-12.644 7.225zM565.015 328.874h156.788l17.702-89.232c1.264-6.322-3.432-12.283-9.754-12.283h-169.974c-6.683 0-11.741 6.322-10.477 13.005l15.715 88.509zM546.049 208.573l-18.605-90.677h235.002l-17.16 88.148c-1.264 6.322-7.767 12.464-14.089 12.464h-173.045c-5.78 0.181-10.657-3.974-12.102-9.935z" />
<glyph unicode="&#xe909;" glyph-name="network" d="M817.607 549.262l-207.303 143.588 0.228 17.294-0.341-0.228v104.676h2.503l91.25 0.114c6.827 0 12.857 4.21 15.246 10.695s0.569 13.54-4.665 17.977l-135.964 116.395h-156.786l-143.36-118.443c-4.892-4.096-6.713-10.695-4.551-16.612 2.048-5.916 7.623-9.899 13.995-9.899l102.741-0.455v-0.114h1.934l-1.138-125.838-183.41-129.707c-6.827-4.892-9.785-13.54-7.168-21.618 2.503-8.078 9.899-13.426 18.318-13.426l170.439 0.796-22.642-204.914-0.796-1.934-0.796-0.796 0.341-0.341-141.426-356.011c-2.162-5.461-1.479-11.719 1.82-16.498 3.413-4.892 8.875-7.851 14.791-7.851l522.012-0.341c4.437 0 8.647 2.276 11.378 5.916 2.617 3.641 3.186 8.306 1.593 12.516l-136.306 362.496 0.228 0.228-0.455 0.455-0.569 1.593-29.127 202.638 199.225-0.228c6.713 0 12.743 4.324 14.677 10.809 2.048 6.258-0.341 13.198-5.916 17.067zM738.759-41.813l-479.346 0.455 241.892 227.669 237.454-228.124zM408.917 306.005h187.164l-94.549-88.974-92.615 88.974zM517.461 201.785l104.334 98.304 116.85-310.727-221.184 212.423zM408.69 328.306l93.298 93.184 94.436-93.184h-187.733zM429.625 524.459l143.474-0.683-71.111-70.884-72.363 71.566zM498.233 623.673l-77.255 58.482 81.579 59.506 77.483-54.955-81.806-63.033zM498.46 595.684l64.853-49.266-128.341 0.455 63.488 48.811zM521.671 755.541l66.219 48.356v-95.232l-66.219 46.876zM502.443 769.195l-63.716 45.17 125.838 0.228-62.123-45.397zM585.614 836.779l-168.391-0.228 18.091 100.921h130.162l20.139-100.693zM483.442 755.314l-69.518-50.745 0.91 99.442 68.608-48.697zM413.468 558.478l0.341 101.148 66.105-50.062-66.446-51.086zM516.779 609.564l70.77 54.386-1.707-106.837-69.063 52.452zM608.256 836.779l-16.384 82.261 95.801-82.148-79.417-0.114zM308.338 837.234l101.148 83.513-14.905-83.854-86.244 0.341zM391.509 661.22l-0.341-114.347-162.020-0.683 162.361 115.029zM410.852 511.374l75.207-74.183-93.753-93.525 18.546 167.708zM485.148 201.785l-224.939-211.74 122.994 309.703 101.945-97.963zM612.466 343.893l-94.663 93.525 70.997 70.884 23.666-164.409zM607.801 544.142l1.934 121.97 176.469-122.084-178.404 0.114z" />
<glyph unicode="&#xe90a;" glyph-name="off-comms" d="M770.503 613.433l-45.852-45.511c10.354-16.27 12.060-24.007 12.060-24.007 27.648-66.674 9.216-120.946 9.216-120.946-10.695-46.421-41.188-79.531-41.188-79.531-12.174-11.492-13.312-16.156-13.312-16.156-11.264-27.989 9.216-40.050 9.216-40.050 28.9-17.636 43.122 7.509 43.122 7.509 76.459 76.8 68.949 183.751 68.949 183.751-2.617 63.488-24.235 108.43-42.212 134.94zM423.936 581.461c-20.252 25.941-44.715 4.779-44.715 4.779-54.5-48.583-48.811-109.227-48.811-109.227-1.024-32.313 12.971-63.716 23.438-80.782l45.739 44.373c-16.043 25.828-7.851 47.559-7.851 47.559 2.844 29.241 24.121 48.924 24.121 48.924 8.42 5.803 11.833 13.653 11.833 13.653 6.030 22.756-3.755 30.72-3.755 30.72zM294.912 523.89c10.695 46.421 41.188 79.531 41.188 79.531 12.174 11.492 13.312 16.156 13.312 16.156 11.264 27.989-9.216 40.050-9.216 40.050-28.9 17.636-43.122-7.509-43.122-7.509-76.459-76.8-68.949-183.751-68.949-183.751 3.072-71.68 35.954-127.204 53.931-150.869l44.146 46.535c-13.881 19.456-21.845 39.14-21.845 39.14-27.876 66.446-9.444 120.718-9.444 120.718zM707.356 476.217c-1.138 19.911-2.731 40.391-8.647 54.727l-51.541-51.541c0.569-9.33-1.252-14.564-1.252-14.564-2.731-29.241-24.007-48.924-24.007-48.924-8.192-5.803-11.605-13.653-11.605-13.653-5.916-22.983 3.982-30.948 3.982-30.948 20.48-25.941 44.715-4.665 44.715-4.665 52.452 48.356 48.356 109.568 48.356 109.568zM983.95 646.656c-25.828 60.871-62.578 115.712-109.568 162.588-46.99 46.99-101.604 83.854-162.588 109.568-63.26 26.852-130.162 40.277-199.339 40.277s-136.078-13.426-199.111-40.164c-60.871-25.828-115.712-62.578-162.588-109.568s-83.854-101.604-109.568-162.588c-26.852-63.147-40.391-130.162-40.391-199.225s13.54-136.078 40.164-199.111c25.828-60.871 62.578-115.712 109.568-162.588s101.604-83.854 162.588-109.568c63.147-26.738 130.162-40.164 199.111-40.164 69.063 0 136.078 13.426 199.111 40.164 60.871 25.828 115.712 62.578 162.588 109.568 46.99 46.99 83.854 101.604 109.568 162.588 26.738 63.147 40.164 130.162 40.164 199.111 0.455 69.063-13.084 136.078-39.708 199.111zM54.5 445.952c0 235.065 182.613 454.884 457.842 454.884 106.041 0 222.663-46.649 297.415-113.095l-262.94-260.21c-7.282 2.958-15.132 4.551-23.552 4.551-34.93 0-63.147-28.217-63.147-63.147 0-8.42 1.593-16.27 4.551-23.552l-296.050-299.236c-64.057 74.638-114.119 193.764-114.119 299.804zM514.617-9.045c-112.64-6.144-236.658 52.679-311.751 118.898l291.84 288.768-0.114-317.668c0-16.839 13.653-30.492 30.492-30.492h1.365c16.839 0 30.492 13.653 30.492 30.492v334.507c17.749 11.264 29.355 30.948 29.355 53.362 0 4.437-0.455 8.647-1.252 12.743l266.468 266.923c66.105-75.207 110.478-194.901 112.868-302.535 5.803-255.431-214.926-442.14-449.764-454.997z" />
<glyph unicode="&#xe90b;" glyph-name="out-of-power" d="M770.617 849.863c-69.063 69.063-160.996 107.179-258.731 107.179s-189.554-38.116-258.731-107.179c-69.063-69.063-107.179-160.996-107.179-258.731 0-50.062 9.899-98.532 29.468-144.156 18.887-44.032 45.966-83.513 80.327-117.191l0.114 0.114c5.575-5.916 26.51-31.175 28.331-76.8-9.216-8.647-15.019-20.935-15.019-34.588v-19.115c0-19.911 12.402-37.092 29.924-44.032 0-0.455 0-0.796 0-1.252v-37.66c0-7.168 2.048-13.995 5.461-19.684-2.617-5.12-4.096-11.036-4.096-17.18v-37.66c0-21.049 17.067-38.116 38.116-38.116h114.347v-29.013c0-19.797 16.043-35.84 35.84-35.84h37.66c19.797 0 35.84 16.043 35.84 35.84v29.013h126.066c21.049 0 38.116 17.067 38.116 38.116v37.66c0 7.168-2.048 13.995-5.461 19.684 2.617 5.12 4.096 11.036 4.096 17.18v37.66c0 1.138 0 2.162-0.114 3.186 15.246 7.851 25.6 23.78 25.6 42.098v19.115c0 13.767-5.916 26.169-15.246 34.816 1.82 47.332 22.869 67.698 27.307 71.452v0c0.114 0.114 0.228 0.228 0.341 0.341l0.796 0.569 1.252 1.252c35.271 33.792 63.033 73.5 82.489 118.101 20.139 46.194 30.379 95.346 30.379 146.091-0.114 97.735-38.229 189.668-107.292 258.731zM511.886 917.22c82.83 0 158.492-31.061 216.064-82.034l-158.379-158.379 45.966 121.060 0.228 1.479c2.048 11.378-1.707 18.773-5.234 22.983-8.306 9.899-20.935 9.899-26.396 9.785-0.341 0-0.683 0-0.91 0h-112.412c-8.647 0-16.27-5.461-19.115-13.54l-83.74-244.736c-2.389-7.054-1.252-14.905 2.958-21.049 4.324-6.258 11.492-10.012 19.115-10.126l44.487-0.683-166.798-167.026c-53.020 59.62-81.92 135.509-81.92 216.178 0 179.769 146.318 326.087 326.087 326.087zM633.287 576.114l-14.222 9.444-122.084-183.637 22.073 167.367-0.569 0.114 29.468 29.468h80.1l-8.875-13.198 14.108-9.557zM703.147 226.133c4.21 0 7.509-3.413 7.509-7.509v-19.115c0-4.21-3.413-7.509-7.509-7.509h-11.036c-1.707 0.228-3.413 0.341-5.12 0.341h-349.867c-1.707 0-3.413-0.114-5.12-0.341h-15.474c-4.21 0-7.509 3.413-7.509 7.509v19.115c0 4.21 3.413 7.509 7.509 7.509h386.617zM685.17 118.272h-346.226v33.906h346.34l-0.114-33.906zM323.243 265.956c-3.641 38.002-17.636 64.284-28.672 79.531l184.889 184.889-34.93-264.42h-121.287zM434.404 576.114v0l-29.355 0.455 75.776 221.525h98.304l-60.302-158.948c-2.048-4.779-2.617-10.012-1.934-15.019l-48.356-48.356-34.133 0.341zM522.354-21.106h-29.696v25.031h29.696v-25.031zM686.535 43.748h-346.226v34.247h346.34l-0.114-34.247zM738.19 356.409c-0.455-0.341-0.91-0.796-1.479-1.252v0c-8.875-7.509-35.385-34.361-40.619-89.202h-248.604l209.692 315.164c7.282 10.354 8.192 22.983 2.617 33.792-5.689 11.15-17.522 18.091-30.72 18.091h-47.104l174.080 174.080c50.972-57.572 81.92-133.12 81.92-215.836 0-89.429-35.385-172.828-99.783-234.837z" />
<glyph unicode="&#xe90c;" glyph-name="solar-panel" d="M1018.942 235.487l-140.893 238.434c-6.503 11.199-18.605 17.883-31.43 17.883h-544.423c-12.825 0-24.747-6.683-31.43-17.702l-142.88-238.253c-6.683-11.199-6.864-24.566-0.903-35.946 6.503-12.102 19.328-19.328 33.236-19.328h826.209c13.728 0 26.553 7.045 33.056 19.147 6.141 11.199 5.961 24.566-0.542 35.765zM673.394 472.295l59.428-272.392h-322.427l59.428 272.212-0.542 0.181h204.114zM144.325 208.573c-2.89 5.419-2.89 11.741 0.361 16.979l142.88 238.614c3.071 5.058 8.67 8.128 14.631 8.128h147.576l-59.428-272.392h-230.486c-6.322 0-12.464 3.251-15.534 8.67zM1002.324 208.573c-3.071-5.419-9.212-8.67-15.534-8.67h-243.853l9.573 1.987-58.886 270.225h153.176c5.961 0 11.741-3.251 14.631-8.309l140.893-238.253c2.89-5.238 3.071-11.741 0-16.979zM980.648 153.661c-0.542-8.128-7.767-14.631-16.076-14.631h-781.051c-8.128 0-15.534 6.141-16.076 14.631-0.542 9.212 6.503 16.618 15.534 16.618h782.134c9.032-0.181 16.257-7.587 15.534-16.618zM393.777 338.989h-166.904l64.485 109.824c3.071 5.238 7.406 7.767 13.547 7.767l131.138 0.542-25.288-104.766c-2.348-7.948-9.212-13.367-16.979-13.367zM375.533 211.824h-210.616c-3.613 0-5.78 3.793-3.974 7.045l59.247 102.599c2.89 5.058 7.406 7.587 13.367 7.587l158.956-0.542c6.141 0 11.019-4.696 9.573-10.838l-26.553-105.85zM983.539 220.856c2.348-3.974-0.542-9.032-5.058-9.032h-208.81l-26.192 105.85c-1.445 5.961 4.155 10.838 10.657 10.838h156.969c5.78 0 11.38-1.987 14.27-7.045l58.163-100.612zM751.608 338.808c-7.767 0-14.631 5.238-16.618 13.005l-23.843 104.766h129.513c5.961 0 11.741-3.251 14.812-8.49l63.221-109.101h-167.084v-0.181zM458.443 353.981l18.605 102.418h186.954l21.134-103.321c1.445-7.225-3.974-14.089-11.56-14.089h-202.669c-7.767 0-13.728 7.225-12.464 14.992zM675.201 328.512c7.406 0 15.173-7.045 16.799-14.451l20.411-102.237h-279.979l22.037 105.128c1.445 6.864 7.225 11.56 14.451 11.56h206.281zM78.033 519.078c0 90.135 73.336 163.291 163.291 163.291 81.284 0 150.827-60.512 161.846-140.893 1.084-7.406 1.445-14.992 1.445-22.398 0 0 0 0 0-0.181 0-4.877-4.155-9.032-9.212-8.49l-22.76 1.264c-3.793 0.181-6.864 3.432-6.864 7.225v0c0 5.78-0.361 11.56-1.084 17.16-8.309 61.053-61.415 107.295-123.191 107.295-68.64 0-124.455-55.815-124.455-124.455 0-46.061 25.469-88.148 65.569-109.643 4.335-2.348 5.961-7.587 3.974-12.102l-7.406-16.799c-2.529-5.78-9.754-8.309-15.354-5.238-52.564 28.54-85.8 83.632-85.8 143.963zM430.987 545.993h36.488c6.322 0 11.741-5.238 11.741-11.741v-11.019c0-6.322-5.238-11.741-11.741-11.741h-36.488c-6.322 0-11.741 5.238-11.741 11.741v11.019c0.181 6.683 5.419 11.741 11.741 11.741zM368.85 643.172c-4.516 4.516-4.516 11.922 0 16.437l25.65 25.65c4.516 4.516 11.922 4.516 16.437 0l8.67-8.67c4.516-4.516 4.516-11.922 0-16.437l-25.65-25.65c-4.516-4.516-11.922-4.516-16.437 0l-8.67 8.67zM108.018 394.262c4.516-4.516 4.516-11.922 0-16.437l-25.65-25.65c-4.516-4.516-11.922-4.516-16.437 0l-5.78 5.78c-4.516 4.516-4.516 11.922 0 16.437l25.469 25.65c4.516 4.516 11.922 4.516 16.437 0l5.961-5.78zM59.789 522.33c0-6.322-5.238-11.741-11.741-11.741h-36.488c-6.322 0-11.741 5.238-11.741 11.741v10.296c0 6.322 5.238 11.741 11.741 11.741h36.488c6.322 0 11.741-5.238 11.741-11.741v-10.296zM60.873 666.293c-4.516 4.516-4.516 11.922 0 16.437l9.032 9.032c4.516 4.516 11.922 4.516 16.437 0l25.65-25.83c4.516-4.516 4.516-11.922 0-16.437l-9.032-9.032c-4.516-4.516-11.922-4.516-16.437 0l-25.65 25.83zM220.009 708.742v36.488c0 6.322 5.238 11.741 11.741 11.741h13.728c6.322 0 11.741-5.238 11.741-11.741v-36.488c0-6.322-5.238-11.741-11.741-11.741h-13.728c-6.503 0-11.741 5.238-11.741 11.741z" />
<glyph unicode="&#xe90d;" glyph-name="status" d="M969.991 443.394c0-141.615-63.221-272.934-173.406-361.444-6.141-7.948-15.715-13.186-26.914-13.186-18.605 0-33.597 14.812-33.597 32.875 0 11.741 6.322 22.037 15.715 27.637l-0.181 0.181c96.999 76.046 152.814 190.386 152.814 313.757 0 218.203-176.658 396.125-394.499 398.112v-24.747c0-23.663-26.733-37.571-45.88-24.024l-85.981 59.97c-17.16 11.922-16.618 37.571 1.084 48.771l85.981 54.189c19.508 12.283 44.977-1.626 44.977-24.747v-23.843c122.468-1.084 237.35-48.951 323.872-135.835 87.787-87.426 136.016-203.933 136.016-327.666zM645.938 43.656l-85.981 59.97c-19.508 13.547-45.88-0.361-45.88-24.024v-24.747c-218.022 1.987-394.499 179.909-394.499 398.112 0 123.371 55.635 237.53 152.814 313.757l-0.181 0.181c9.393 5.78 15.715 16.076 15.715 27.637 0 18.063-15.173 32.875-33.597 32.875-11.019 0-20.773-5.058-26.914-13.186-110.185-88.69-173.406-220.009-173.406-361.444 0-123.913 48.229-240.24 135.835-327.846 86.522-86.522 201.585-134.751 323.872-135.835v-23.843c0-22.94 25.469-37.21 44.977-24.747l85.981 54.189c17.883 11.56 18.424 37.21 1.264 48.951zM706.45 446.645h-166.181c-5.78 13.547-16.799 24.205-30.527 29.624v191.469c0 12.283-9.935 22.218-22.218 22.218v0c-12.283 0-22.218-9.935-22.218-22.218v-194.721c-16.618-9.032-28.179-26.733-28.179-47.145 0-29.624 24.024-53.467 53.467-53.467 20.592 0 38.294 11.741 47.325 28.54h168.168c12.464 0 22.76 10.296 22.76 22.76s-9.935 22.94-22.398 22.94z" />
<glyph unicode="&#xe90e;" glyph-name="voltage-fault" d="M958.009 847.588h-891.79c-36.523 0-66.219-29.696-66.219-66.219v-509.952c0-36.523 29.696-66.219 66.219-66.219h891.676c36.523 0 66.219 29.696 66.219 66.219v509.952c0 36.523-29.696 66.219-66.105 66.219zM158.72 240.924c-23.666 0-43.008 19.228-43.008 43.008s19.228 43.008 43.008 43.008 43.008-19.228 43.008-43.008c-0.114-23.78-19.228-43.008-43.008-43.008zM317.554 240.924c-23.666 0-43.008 19.228-43.008 43.008s19.228 43.008 43.008 43.008c23.666 0 43.008-19.228 43.008-43.008-0.114-23.78-19.342-43.008-43.008-43.008zM869.376 240.924c-23.666 0-43.008 19.228-43.008 43.008s19.228 43.008 43.008 43.008 43.008-19.228 43.008-43.008c0-23.78-19.342-43.008-43.008-43.008zM950.158 391.339c0-12.516-10.24-22.869-22.869-22.869h-823.524c-12.516 0-22.869 10.24-22.869 22.869v349.525c0 12.516 10.24 22.869 22.869 22.869h823.41c12.516 0 22.869-10.24 22.869-22.869l0.114-349.525zM869.376 88.69v0c0-22.3-18.091-40.277-40.277-40.277h-629.988c-22.3 0-40.277 18.091-40.277 40.277v0c0 22.3 18.091 40.277 40.277 40.277h629.76c22.414 0.114 40.505-17.863 40.505-40.277zM559.445 441.628c0-23.666-19.228-43.008-43.008-43.008-8.078 0-15.701 2.276-22.3 6.258l-254.066 70.884c-4.437 1.252-3.413 7.737 1.138 7.623l244.281-10.695c0.228 0 0.683-0.114 0.91-0.228 7.737 7.623 18.432 12.288 30.151 12.288 23.666-0.228 42.894-19.456 42.894-43.122zM859.932 405.333h18.546v-12.629h-18.204c0-0.114 0-0.114 0-0.228h-17.749c0 0.114 0 0.114 0 0.228h-17.749v12.629h17.522c-3.072 78.165-33.678 149.39-82.489 204.231l-10.695-12.516-4.779 4.096 11.15 13.198c-59.733 64.512-144.953 104.903-239.502 104.903-0.228 0-0.341 0-0.683 0v-19.115h-12.629v18.887c-88.747-3.527-168.505-42.667-225.28-103.424l10.809-12.857-4.779-4.096-10.24 12.174c-49.38-54.841-80.441-126.635-83.513-205.369h17.408v-12.629h-17.636c0-0.114 0-0.114 0-0.228h-17.749c0 0.114 0 0.114 0 0.228h-18.432v12.629h18.66c3.072 81.92 34.475 158.72 89.657 219.136l-12.857 15.246 4.779 4.096 12.288-14.564c2.162 2.276 4.437 4.551 6.599 6.827 62.009 62.009 143.246 97.394 230.286 100.693v17.18h12.629v-17.067c0.228 0 0.341 0 0.683 0 92.046 0 178.517-35.84 243.598-100.921 2.617-2.617 5.234-5.234 7.623-7.964l11.947 14.108 4.779-4.096-12.516-14.791c54.613-60.188 85.675-136.647 88.519-217.998z" />
<glyph unicode="&#xe90f;" glyph-name="voltage-fault-alt" d="M966.656 647.339c-24.804 60.985-60.416 115.712-105.7 162.702s-98.19 83.854-156.9 109.796c-60.871 26.624-125.497 40.164-192.171 40.164s-131.186-13.54-192.057-40.164c-58.709-25.828-111.616-62.805-156.9-109.796s-80.896-101.717-105.7-162.702c-25.714-63.147-38.798-130.276-38.798-199.339s13.084-136.192 38.798-199.339c24.804-60.985 60.416-115.712 105.7-162.702s98.19-83.854 156.9-109.796c60.985-26.624 125.497-40.164 192.171-40.164s131.3 13.54 192.171 40.277c58.709 25.714 111.616 62.805 156.9 109.796s80.896 101.717 105.7 162.702c25.714 63.147 38.798 130.162 38.798 199.339s-13.198 136.078-38.912 199.225zM75.435 448c0 249.742 195.812 452.836 436.452 452.836 109.682 0 209.92-42.212 286.72-111.73l-100.238-103.879c6.713 12.060 11.264 27.534 12.629 47.104 0.91 12.174-8.533 22.414-20.366 22.414h-1.138c-10.24 0-18.773-7.851-20.139-18.318-3.641-26.738-15.019-40.732-35.271-40.732-25.031 0-50.062 12.629-84.651 29.582-45.397 22.528-67.015 31.63-95.46 31.63-41.301 0-74.638-27.876-79.986-82.944-1.252-12.402 8.306-23.211 20.252-23.211h0.569c10.126 0 18.546 7.737 20.139 18.091 4.551 29.241 18.546 41.756 39.026 41.756 24.348 0 49.38-14.677 81.237-30.948 46.763-22.528 71.111-30.948 98.304-30.948 13.881 0 27.42 2.958 39.253 9.899l-256.114-265.785-65.991 163.157c-7.054 17.408-26.169 25.372-42.894 18.204v0c-16.612-7.282-24.462-27.079-17.636-44.487l76.345-188.871-183.41-190.236c-67.015 79.644-107.634 183.637-107.634 297.415zM512-4.836c-112.868 0-215.836 44.715-293.433 117.76l169.188 175.445 84.992-210.489c1.252-2.958 2.844-5.803 4.665-8.192 8.078-13.653 22.528-22.869 39.026-22.869s31.175 9.216 39.026 22.869c1.82 2.389 3.413 5.12 4.665 8.192l182.613 451.698c7.054 17.408-0.796 37.205-17.636 44.487v0c-16.612 7.282-35.84-0.91-42.894-18.204l-165.547-410.396-78.734 194.901 397.084 411.876c70.542-80.441 113.55-187.278 113.55-304.469 0-249.515-195.925-452.608-436.565-452.608z" />
<glyph unicode="&#xe910;" glyph-name="zone-substation" d="M835.601 463.986h-0.181l-37.21-0.181v32.333c13.909 3.071 24.385 15.173 24.747 29.985 0.181 7.587-2.709 14.812-8.128 20.231-5.238 5.6-12.464 8.49-20.050 8.49h-46.242v47.325h-15.715v-47.325h-77.672v47.325h-15.715v-47.325h-394.499c-16.799 0-30.707-13.547-30.707-30.707 0-7.767 3.251-15.173 8.851-20.773 3.974-3.974 8.851-6.503 13.909-7.587v-31.611h-37.752c-8.309 0-15.896-3.251-21.676-9.032s-9.032-13.547-9.032-21.676v-184.967c0-16.618 13.547-29.985 29.985-29.985l61.776 0.542 1.084-45.519-0.542-61.776c0-16.437 13.909-30.165 30.165-30.165h249.633l7.225 0.723h197.43c15.896 1.445 29.443 15.173 29.443 30.165l-0.723 61.595 0.542 44.977h61.595c16.799 0 30.707 13.547 30.707 30.707v183.341c0 8.309-3.251 16.076-9.212 21.856-6.141 5.961-13.728 9.032-22.037 9.032zM360.179 183.104c0.181-13.186-10.657-23.843-23.843-23.843s-23.843 10.657-23.843 23.843v276.366c0 13.186 10.657 23.843 23.843 23.843s23.843-10.657 23.843-23.843v-276.366zM451.579 183.465c0-13.367-10.657-24.024-23.843-24.024s-23.843 10.657-23.843 23.843v276.727c0 13.186 10.657 23.843 23.843 23.843s23.843-10.657 23.843-23.843v-276.547zM542.798 180.033c0.181-13.186-10.657-23.843-23.843-23.843s-23.843 10.657-23.843 23.843v276.547c0 13.186 10.657 23.843 23.843 23.843s23.843-10.657 23.843-23.843v-276.547zM632.572 183.104c0-13.186-10.657-23.843-23.843-23.843s-23.843 10.657-23.843 23.843v276.366c0 13.186 10.657 23.843 23.843 23.843s23.843-10.657 23.843-23.843v-276.366zM724.874 183.104c0.181-13.186-10.657-23.843-23.843-23.843s-23.843 10.657-23.843 23.843v276.366c0 13.186 10.657 23.843 23.843 23.843s23.843-10.657 23.843-23.843v-276.366zM257.4 602.711c0.181 0 0.181 0 0.542 0h11.56v-47.325h15.715v47.325h78.033v-47.325h15.715v47.325h6.683c4.335 0 7.767 3.432 7.767 7.767 0 1.806-0.723 3.432-1.626 4.877l0.542 0.723-27.817 42.268h21.495c4.335 0 7.767 3.432 7.767 7.767 0 1.806-0.723 3.432-1.626 4.877l0.542 0.723-27.456 41.726h20.592c4.696 0 8.128 3.432 8.128 7.767 0 1.806-0.723 3.432-1.626 4.877l0.542 0.723-35.765 54.009-2.529 3.974h-22.398v12.644c0 2.709-1.987 4.877-4.877 4.877h-14.812c-2.348 0-4.335-1.806-4.335-4.335v-13.367h-19.869l-37.752-59.247 0.723-0.542c-0.903-2.709-0.542-5.961 1.806-8.309 1.626-1.626 3.432-2.348 5.6-2.348v-0.903h19.328l-27.275-42.629 0.542-0.542c-0.542-1.084-0.903-2.348-0.903-3.613 0-4.335 3.432-7.767 7.767-7.767 0.181 0 0.181 0 0.542 0h19.869l-27.817-43.893 0.542-0.542c-0.542-1.084-0.903-2.348-0.903-3.613-0.723-4.516 2.709-7.948 7.045-7.948zM271.489 729.334l27.998 42.629h43.352l28.179-42.81h-16.437l-0.542 0.903-66.111-0.181-0.181-0.542c0 0-16.257 0-16.257 0zM271.309 674.422l25.65 39.016h48.409l25.65-39.016h-99.709zM297.319 658.526h47.325l26.011-39.92h-99.709l26.372 39.92zM440.56 602.711c0.181 0 0.181 0 0.542 0h10.115v-47.325h15.715v47.325h77.672v-47.325h15.715v47.325h8.309c4.335 0 7.767 3.432 7.767 7.767 0 1.806-0.723 3.432-1.626 4.877l0.542 0.723-27.817 42.268h21.495c4.335 0 7.767 3.432 7.767 7.767 0 1.806-0.723 3.432-1.626 4.877l0.542 0.723-27.456 41.365h20.592c4.696 0.542 8.309 3.974 8.309 8.309 0 1.806-0.723 3.432-1.626 4.877l0.542 0.723-35.765 54.009-2.529 3.974h-22.398v12.644c0 2.709-1.987 4.877-4.877 4.877h-14.992c-2.348 0-4.335-1.806-4.335-4.335v-13.367h-19.869l-37.752-59.247 0.723-0.542c-0.903-2.709-0.542-5.961 1.806-8.309 1.626-1.626 3.432-2.348 5.6-2.348v-0.903h19.328l-27.456-42.629 0.542-0.542c-0.542-1.084-0.903-2.348-0.903-3.613 0-4.335 3.432-7.767 7.767-7.767 0.181 0 0.181 0 0.542 0h19.869l-27.817-43.893 0.542-0.542c-0.542-1.084-0.903-2.348-0.903-3.613-0.361-4.696 3.071-8.128 7.406-8.128zM454.649 729.334l27.998 42.629h43.352l28.179-42.81h-16.076l-0.542 0.903-66.111-0.181-0.181-0.542c0 0-16.618 0-16.618 0zM454.469 674.422l25.65 39.016h48.409l25.65-39.016h-99.709zM480.48 658.526h47.325l26.011-39.92h-99.709l26.372 39.92zM628.598 657.623c0.181 0 0.181 0 0.542 0h19.869l-25.288-40.1c-0.903-0.903-1.445-1.806-1.806-3.071l-0.181-0.181c-0.181-0.723-0.542-1.626-0.542-2.348 0-1.806 0.723-3.613 1.806-5.058 0.181-0.542 0.723-0.903 1.084-1.445 2.348-2.348 5.78-3.071 8.851-1.626h118.856l0.542-0.723 0.723 0.723h4.155c4.335 0 7.767 3.432 7.767 7.767 0 1.987-0.903 3.974-1.987 5.238l-26.914 40.823h21.495c4.335 0.181 7.767 3.613 7.767 8.128 0 1.806-0.723 3.432-1.626 4.877l0.542 0.723-27.998 41.365h20.592c4.335 0 7.767 3.432 7.767 7.767 0 1.806-0.723 3.432-1.626 4.877l0.542 0.723-35.765 54.009-2.529 3.974h-22.398v12.644c0 2.709-1.987 4.877-4.877 4.877h-14.812c-2.348 0-4.335-1.806-4.335-4.335v-13.367h-19.869l-37.752-59.247 0.723-0.542c-0.903-2.709-0.542-5.961 1.806-8.309 1.626-1.626 3.432-2.348 5.6-2.348v-0.903h19.328l-27.456-42.81 0.542-0.542c-0.542-1.084-0.903-2.348-0.903-3.613-0.181-4.516 3.251-7.948 7.767-7.948zM741.131 619.69h-97.541l25.108 38.294h47.325l25.108-38.294zM642.687 728.792l27.998 42.629h43.352l28.179-42.81h-16.437l-0.542 0.903-66.111-0.181-0.181-0.542h-16.257zM668.156 712.715h48.409l25.65-39.016h-99.709l25.65 39.016zM765.155 3.195c0-11.922-9.935-21.856-21.856-21.856h-445.257c-11.922 0-21.856 9.935-21.856 21.856s9.935 21.856 21.856 21.856h445.076c12.102 0 22.037-9.935 22.037-21.856zM336.516 482.591c-12.644 0-23.121-10.296-23.121-23.121v-276.547c0-12.644 10.296-23.121 23.121-23.121s23.121 10.296 23.121 23.121v276.547c-0.181 13.005-10.296 23.121-23.121 23.121zM358.915 183.104c0-12.464-9.935-22.398-22.398-22.398s-22.398 10.115-22.398 22.398v276.366c0 12.464 10.115 22.398 22.398 22.398 12.464 0 22.398-9.935 22.398-22.398v-276.366zM427.735 483.133c-12.644 0-23.121-10.296-23.121-23.121v-276.547c0-12.644 10.296-23.121 23.121-23.121s23.121 10.296 23.121 23.121v276.547c0 12.644-10.477 23.121-23.121 23.121zM450.134 183.285c0-12.464-9.935-22.398-22.398-22.398s-22.398 10.115-22.398 22.398v276.547c0 12.464 10.115 22.398 22.398 22.398s22.218-9.935 22.398-22.218v-276.727zM608.909 482.591c-12.644 0-23.121-10.296-23.121-23.121v-276.547c0-12.644 10.296-23.121 23.121-23.121s23.121 10.296 23.121 23.121v276.547c-0.181 13.005-10.477 23.121-23.121 23.121zM631.126 183.104c0-12.464-10.115-22.398-22.398-22.398-12.464 0-22.398 10.115-22.398 22.398v276.366c0 12.464 10.115 22.398 22.398 22.398s22.218-9.935 22.398-22.398v-276.366zM701.031 482.591c-12.644 0-23.121-10.296-23.121-23.121v-276.547c0-12.644 10.296-23.121 23.121-23.121s23.121 10.296 23.121 23.121v276.547c0 13.005-10.477 23.121-23.121 23.121zM723.429 183.104c0-12.464-10.115-22.398-22.398-22.398-12.464 0-22.398 10.115-22.398 22.398v276.366c0 12.464 10.115 22.398 22.398 22.398 12.464 0 22.398-9.935 22.398-22.398v-276.366zM519.135 479.701c-12.644 0-23.121-10.296-23.121-23.121v-276.547c0-12.644 10.296-23.121 23.121-23.121s23.121 10.296 23.121 23.121v276.547c0 12.825-10.477 23.121-23.121 23.121zM541.533 180.033c0-12.464-10.115-22.398-22.398-22.398-12.464 0-22.398 10.115-22.398 22.398v276.547c0 12.464 10.115 22.398 22.398 22.398 12.464 0 22.398-9.935 22.398-22.398v-276.547zM1024.903 877.632v-878.411c0-9.754-15.354-17.16-25.469-17.16s-25.469 7.045-25.469 16.799l-0.361 864.502-921.582 0.181v-864.322c0-9.754-16.257-17.702-26.372-17.702s-24.566 7.767-24.566 17.521v915.44h1023.639v-36.849h0.181z" />
<glyph unicode="&#xe911;" glyph-name="logo-2" horiz-adv-x="1015" d="M301.648 656.399c80.488 0.009 146.339 62.664 151.452 141.862l0.023 0.447q7.477 0.338 15.027 0.314c130.404-0.128 244.117-71.467 304.36-177.221l0.906-1.727 1.471-2.822c55.308 38.231 123.278 22.673 123.278 22.673-8.177 14.786-21.419 38.086-21.419 38.086-81.655 143.938-233.856 239.471-408.37 239.471-20.349 0-40.395-1.299-60.059-3.818l2.33 0.244c-27.625 28.487-66.254 46.166-109.012 46.166-83.831 0-151.789-67.958-151.789-151.789s67.958-151.789 151.789-151.789c0.005 0 0.009 0 0.014 0h-0.001zM1014.931 448.434c-0.016 83.832-67.979 151.784-151.813 151.784-83.844 0-151.813-67.969-151.813-151.813 0-57.392 31.847-107.346 78.833-133.153l0.787-0.396c-49.881-119.25-164.018-205.89-300.056-214.67l1.737-27.159c-1.954-52.534-33.214-93.779-33.214-93.779 12.808 0.892 31.356 2.267 39.051 2.846v0c194.596 13.075 355.683 143.13 414.35 319.901l0.952 3.31c59.455 21.477 101.184 77.426 101.184 143.122 0 0.003 0 0.005 0 0.008v-0.001zM301.334 239.625c-0.039 0-0.086 0-0.132 0-33.512 0-64.475-10.914-89.528-29.381l0.415 0.292c-57.988 62.378-93.575 146.27-93.575 238.474 0 78.485 25.784 150.947 69.344 209.378l-0.662-0.928-1.134 0.82 0.603 0.82c-57.43 33.214-72.216 100.412-72.216 100.412-9.72-13.531-24.989-34.95-24.989-34.95v0c-55.897-75.756-89.464-170.965-89.464-274.014 0-0.464 0.001-0.927 0.002-1.39v0.072c0-0.13 0-0.284 0-0.438 0-135.671 57.867-257.826 150.265-343.131l0.318-0.29c-0.647-5.263-1.016-11.356-1.016-17.535 0-83.831 67.958-151.789 151.789-151.789s151.789 67.958 151.789 151.789c0 83.831-67.958 151.789-151.789 151.789-0.007 0-0.015 0-0.022 0h0.001zM253.19 447.686c0-0.007 0-0.016 0-0.024 0-117.853 95.539-213.392 213.392-213.392s213.392 95.539 213.392 213.392c0 117.853-95.539 213.392-213.392 213.392v0c-117.789-0.137-213.241-95.58-213.392-213.353v-0.015zM634.458 447.686c0-0.007 0-0.016 0-0.024 0-92.729-75.172-167.901-167.901-167.901s-167.901 75.172-167.901 167.901c0 92.729 75.172 167.901 167.901 167.901 0.009 0 0.017 0 0.026 0h-0.002c92.671-0.11 167.767-75.205 167.877-167.866v-0.011zM551.051 447.662c0-46.664-37.829-84.493-84.493-84.493s-84.493 37.829-84.493 84.493c0 46.664 37.829 84.493 84.493 84.493s84.493-37.829 84.493-84.493z" />
<glyph unicode="&#xe912;" horiz-adv-x="957" d="M925.049 336.632c5.040 8.617 10.015 18.815 14.252 29.388l0.566 1.6c-6.773-16.561-14.209-30.69-22.808-43.997l0.628 1.038c2.534 3.982 5.020 7.94 7.361 11.971z" />
<glyph unicode="&#xe913;" horiz-adv-x="957" d="M697.606 504.535l-1.134-0.531c-1.11-0.507-2.172-1.062-3.234-1.641s-1.472-0.845-2.172-1.279l-0.579-0.362c-16.065-9.916-26.61-27.423-26.61-47.393 0-30.657 24.852-55.509 55.509-55.509 3.632 0 7.183 0.349 10.62 1.015l-0.349-0.056h0.217c1.424 0.241 2.848 0.555 4.248 0.917 1.014 0.265 2.003 0.531 2.969 0.845l1.424 0.483c21.958 7.794 37.4 28.39 37.4 52.593 0 30.75-24.928 55.678-55.678 55.678-8.194 0-15.974-1.77-22.98-4.948l0.35 0.142z" />
<glyph unicode="&#xe914;" horiz-adv-x="957" d="M917.688 324.733c-0.99-1.496-1.955-3.017-2.944-4.465 0.941 1.376 1.907 2.872 2.944 4.465z" />
<glyph unicode="&#xe915;" horiz-adv-x="957" d="M871.857 634.354c3.813-3.21 7.53-6.54 11.102-9.943-3.436 3.434-7.055 6.686-10.841 9.74l-0.261 0.203z" />
<glyph unicode="&#xe916;" horiz-adv-x="957" d="M904.848 306.85s3.813 4.489 9.412 12.695c-3.017-4.344-6.178-8.544-9.412-12.622z" />
<glyph unicode="&#xe917;" horiz-adv-x="957" d="M938.757 542.185c10.939-26.223 17.293-56.69 17.293-88.64 0-30.895-5.941-60.403-16.744-87.442l0.561 1.59c17.546 43.128 29.13 105.443-1.11 174.492z" />
<glyph unicode="&#xe918;" horiz-adv-x="957" d="M938.757 542.185c-1.255 2.848-2.582 5.696-3.982 8.568 13.247-28.559 20.974-61.988 20.974-97.222 0-46.055-13.203-89.027-36.030-125.337l0.575 0.98c-5.302-8.457-10.415-15.644-15.896-22.525l0.377 0.491v-0.217c3.234 4.079 6.396 8.278 9.412 12.622l0.483 0.724c0.99 1.448 1.955 2.969 2.944 4.465 7.97 12.269 15.406 26.398 21.536 41.205l0.644 1.755c10.264 25.475 16.219 55.013 16.219 85.943 0 31.916-6.34 62.35-17.83 90.114l0.574-1.565z" />
<glyph unicode="&#xe919;" horiz-adv-x="957" d="M938.757 542.185c-1.255 2.848-2.582 5.696-3.982 8.568 13.247-28.559 20.974-61.988 20.974-97.222 0-46.055-13.203-89.027-36.030-125.337l0.575 0.98c-5.302-8.457-10.415-15.644-15.896-22.525l0.377 0.491v-0.217c3.234 4.079 6.396 8.278 9.412 12.622l0.483 0.724c0.99 1.448 1.955 2.969 2.944 4.465 7.97 12.269 15.406 26.398 21.536 41.205l0.644 1.755c10.264 25.475 16.219 55.013 16.219 85.943 0 31.916-6.34 62.35-17.83 90.114l0.574-1.565z" />
<glyph unicode="&#xe91a;" horiz-adv-x="957" d="M882.958 624.411v0c-3.572 3.403-7.24 6.734-11.102 9.943-3.331 2.727-7.409 5.865-12.188 9.219 9.69-7.142 18.243-14.471 26.231-22.37l-0.021 0.021c-0.869 1.062-1.907 2.124-2.92 3.186z" />
<glyph unicode="&#xe91b;" horiz-adv-x="957" d="M882.958 624.411v0c-3.572 3.403-7.24 6.734-11.102 9.943-3.331 2.727-7.409 5.865-12.188 9.219 9.69-7.142 18.243-14.471 26.231-22.37l-0.021 0.021c-0.869 1.062-1.907 2.124-2.92 3.186z" />
<glyph unicode="&#xe91c;" horiz-adv-x="957" d="M61.663 565.402l43.635 83.578c-2.801 4.709-5.638 10.324-8.11 16.132l-0.361 0.955c-7.402 17.19-11.707 37.2-11.707 58.216 0 83.173 67.425 150.599 150.599 150.599 51.614 0 97.164-25.965 124.3-65.547l0.333-0.513c1.086-1.569 2.124-3.162 3.137-4.827l93.931 0.579c-0.434 1.183-0.845 2.413-1.279 3.548-34.727 89.671-120.285 152.102-220.425 152.102-130.212 0-235.769-105.558-235.769-235.769 0-54.247 18.321-104.216 49.113-144.055l-0.405 0.544c4.127-5.382 8.544-10.547 13.008-15.543z" />
<glyph unicode="&#xe91d;" horiz-adv-x="957" d="M243.348 573.68c-2.285-0.125-4.959-0.196-7.65-0.196-25.899 0-50.259 6.588-71.496 18.18l0.781-0.391-39.387-75.444c31.994-17.325 70.041-27.509 110.467-27.509 130.092 0 235.552 105.46 235.552 235.552 0 0.465-0.001 0.93-0.004 1.395v-0.072l-85.17-0.531c0-0.109 0-0.238 0-0.367 0-80.577-63.19-146.395-142.719-150.602l-0.374-0.016z" />
<glyph unicode="&#xe91e;" horiz-adv-x="957" d="M273.191 765.43c22.802-20.632 24.56-55.841 3.929-78.643s-55.841-24.56-78.643-3.929c-22.802 20.632-24.56 55.841-3.929 78.643s55.841 24.56 78.643 3.929z" />
<glyph unicode="&#xe91f;" horiz-adv-x="957" d="M210.573-62.455c8.154-1.003 17.592-1.575 27.164-1.575 25.65 0 50.34 4.108 73.449 11.701l-1.662-0.473c-37.119-9.63-69.966-12.14-98.951-9.654z" />
<glyph unicode="&#xe920;" horiz-adv-x="957" d="M440.405 54.259q4.827 8.182 8.857 16.677c0.965 2.051 1.907 4.079 2.824 6.13q2.751 6.178 5.117 12.502l-94.269 0.893c-3.109-4.776-6.087-8.844-9.262-12.745l0.211 0.268-2.413-2.824c-27.703-32.688-68.788-53.297-114.687-53.297-82.867 0-150.044 67.177-150.044 150.044 0 24.83 6.031 48.252 16.709 68.88l-0.394-0.836c0.772 1.569 1.593 3.113 2.413 4.634l-0.483 0.99 0.193 0.362c0.869 1.545 1.738 3.089 2.655 4.61l-2.245 4.344-26.982 52.155-13.901 26.958c-0.845-0.917-1.738-1.81-2.582-2.751s-1.931-2.196-2.872-3.306-1.665-1.882-2.413-2.848-1.231-1.448-1.834-2.196c-33.514-40.514-53.845-93.001-53.845-150.237 0-28.804 5.149-56.405 14.577-81.934l-0.53 1.639c0.338-0.965 0.724-1.907 1.086-2.872 1.207-3.234 2.413-6.468 3.862-9.654v0c4.16-9.66 8.149-17.539 12.542-25.154l-0.62 1.165c41.487-71.453 117.648-118.735 204.853-118.735 43.090 0 83.484 11.544 118.257 31.708l-1.132-0.606c13.302 7.661 24.787 15.793 35.445 24.867l-0.33-0.274c-17.855-15.494-38.358-28.613-60.613-38.504l-1.557-0.618c54.667 22.808 97.868 64.023 122.67 115.739l0.609 1.41h-0.7q-4.441-8.688-9.171-16.58z" />
<glyph unicode="&#xe921;" horiz-adv-x="957" d="M36.612 47.742c6.561-10.52 13.203-19.596 20.44-28.152l-0.287 0.349c-9.705 11.728-18.694 24.82-26.466 38.685l-0.685 1.33c2.22-4.103 4.513-8.109 6.999-12.212z" />
<glyph unicode="&#xe922;" horiz-adv-x="957" d="M449.48 70.863h-0.217q-4.079-8.519-8.857-16.677 4.754 7.964 9.075 16.677z" />
<glyph unicode="&#xe923;" horiz-adv-x="957" d="M449.48 70.863h-0.217c-2.703-5.672-5.72-11.223-8.568-16.894l-0.555 0.314zM449.48 70.863l-4.32-8.351-4.465-8.495-0.555 0.314c3.041 5.503 5.913 11.102 9.099 16.532h0.241z" />
<glyph unicode="&#xe924;" horiz-adv-x="957" d="M354.052-31.781c-33.647-19.568-74.050-31.118-117.151-31.118-87.152 0-163.274 47.224-204.173 117.479l-0.605 1.125c-3.774 6.451-7.762 14.329-11.317 22.441l-0.605 1.549c2.38-5.877 4.615-10.593 7.071-15.172l-0.41 0.837 0.41-0.772c0.796-1.569 1.641-3.137 2.413-4.706 8.457-15.195 17.446-28.287 27.508-40.459l-0.357 0.444c29.541-35.96 78.727-75.975 153.809-82.395 28.961-2.413 61.832 0 98.951 9.654v0c5.789 1.707 10.499 3.423 15.080 5.382l-0.889-0.338 3.234 1.376c23.812 10.509 44.316 23.628 62.473 39.379l-0.303-0.257c-10.328-8.744-21.822-16.83-34.008-23.847l-1.132-0.601z" />
<glyph unicode="&#xe925;" horiz-adv-x="957" d="M354.052-31.781c-33.651-19.588-74.064-31.151-117.178-31.151-26.721 0-52.404 4.441-76.352 12.626l1.661-0.493c-32.981 11.19-61.345 28.236-85.23 50.096l0.18-0.162c-12.115 11.098-22.9 23.285-32.321 36.51l-0.477 0.705c-2.413 3.427-4.827 6.806-6.902 10.305s-4.368 7.047-6.42 10.667c-3.411 5.91-7.085 13.227-10.383 20.745l-0.598 1.531 0.121-0.145h-0.121l0.386 0.338c7.917-18.232 17.085-33.93 27.845-48.372l-0.452 0.634c5.787-7.915 11.461-14.836 17.482-21.435l-0.177 0.197c6.213-6.846 12.625-13.151 19.377-19.077l0.268-0.231c26.664-23.707 59.564-40.985 95.922-49.086l1.436-0.269c36.057-7.82 73.658-6.299 109.643 1.231q6.734 1.376 13.443 3.065c5.173 1.2 9.573 2.593 13.824 4.281l-0.646-0.226c10.034 3.815 18.318 7.647 26.303 11.962l-1.155-0.571c17.289 9.271 32.208 19.586 45.836 31.354l-0.319-0.269c-10.307-8.844-21.75-17.028-33.885-24.159l-1.11-0.603zM354.052-31.781c13.291 7.68 24.767 15.819 35.423 24.892l-0.331-0.275c-13.305-11.525-28.216-21.862-44.178-30.506l-1.316-0.652c-6.823-3.75-15.106-7.596-23.648-10.925l-1.5-0.514c-3.603-1.463-8.010-2.863-12.541-3.946l-0.661-0.133q-6.709-1.689-13.467-3.089c-35.984-7.578-73.61-9.147-109.739-1.376-37.897 8.33-70.899 25.606-97.873 49.526l0.225-0.196c-7.041 6.16-13.469 12.466-19.522 19.117l-0.171 0.191c-5.916 6.459-11.652 13.436-17.008 20.71l-0.49 0.697c-10.363 13.862-19.557 29.627-26.87 46.4l-0.595 1.531-0.29 0.7 0.676-0.362h0.145c3.903-9.071 7.561-16.379 11.564-23.467l-0.631 1.215c2.051-3.596 4.272-7.071 6.371-10.619s4.61-6.878 6.902-10.33c9.851-13.921 20.598-26.092 32.509-37.014l0.169-0.153c41.994-38.64 98.271-62.328 160.080-62.328 8.024 0 15.955 0.399 23.773 1.179l-0.987-0.080c35.012 3.434 66.917 14.070 95.105 30.408l-1.126-0.602z" />
<glyph unicode="&#xe926;" horiz-adv-x="957" d="M920.367 329.174c22.252 35.33 35.454 78.301 35.454 124.357 0 35.234-7.727 68.663-21.579 98.685l0.605-1.463c1.4-2.872 2.727-5.72 3.982-8.568-13.206 32.208-32.119 59.601-55.709 82.141l-0.090 0.085c1.014-1.062 1.931-2.124 2.92-3.186-7.966 7.877-16.519 15.206-25.572 21.898l-0.638 0.451q-7.385 5.43-15.301 10.354c-35.173 22.193-77.967 35.363-123.838 35.363-4.141 0-8.258-0.107-12.346-0.319l0.572 0.024q-10.136-0.507-20.176-1.858v-0.193l43.442-82.636 0.265-0.459v-0.145c7.135-0.606 13.581-1.588 19.881-2.959l-1.008 0.184c18.186-3.899 34.285-10.583 48.719-19.671l-0.619 0.364c43.080-26.995 71.304-74.211 71.304-128.019 0-59.902-34.979-111.635-85.626-135.886l-0.907-0.391-1.376-0.627-3.186-1.424c-17.503-7.633-37.895-12.074-59.324-12.074-0.492 0-0.983 0.002-1.473 0.007l0.075-0.001v-0.121l-5.696 0.145-53.072-77.616c1.207-0.314 2.413-0.676 3.644-0.965 1.641-0.41 3.282-0.748 4.827-1.11 15.427-3.572 33.141-5.62 51.333-5.62 35.357 0 68.907 7.734 99.052 21.601l-1.475-0.608c0.965 0.459 1.955 0.869 2.92 1.303l2.727 1.352c32.614 15.923 59.939 37.982 81.455 64.889l0.361 0.467v0.217c5.084 6.385 10.182 13.572 14.882 21.035l0.588 1z" />
<glyph unicode="&#xe927;" horiz-adv-x="957" d="M634.639 329.391l0.121 0.193c-39.589 27.508-65.18 72.755-65.18 123.98 0 54.108 28.553 101.546 71.413 128.071l0.645 0.372 1.545 0.917 3.306 1.931 2.051 1.158 2.558 1.303-39.629 75.324c-0.772-0.386-1.496-0.796-2.245-1.207v0l-0.893-0.483c-1.4-0.748-2.8-1.472-4.175-2.245-72.158-41.192-120.011-117.656-120.011-205.296 0-80.382 40.255-151.363 101.706-193.881l0.784-0.513v0.193z" />
<glyph unicode="&#xe928;" horiz-adv-x="957" d="M168.217 306.97l0.555-1.062c19.916 10.382 43.494 16.471 68.494 16.471 63.262 0 117.417-38.995 139.739-94.259l0.361-1.011 0.507-1.352c0.314-0.821 0.627-1.641 0.917-2.413 4.815-13.125 7.877-28.287 8.487-44.079l0.009-0.28c0-1.689 0-3.403 0-5.092s0-2.631 0-3.958l85.098-0.941c0 0.362 0 0.7 0 1.062 0 1.931 0 3.837 0 5.768h0.386c0 1.062 0 2.1 0 3.162-0.764 26.17-5.698 50.95-14.158 74.031l0.522-1.628c-0.362 1.038-0.748 2.051-1.134 3.089l-1.352 3.62c-35.122 88.865-120.274 150.586-219.843 150.586-39.301 0-76.355-9.616-108.94-26.623l1.302 0.619 0.555-1.038z" />
<glyph unicode="&#xe929;" horiz-adv-x="957" d="M285.124 200.562c-9.768 16.92-27.767 28.125-48.383 28.125-30.75 0-55.678-24.928-55.678-55.678 0-7.281 1.397-14.235 3.939-20.609l-0.132 0.376c0.217-0.555 0.459-1.134 0.7-1.689s0.265-0.627 0.41-0.941c1.252-2.969 2.577-5.483 4.087-7.868l-0.129 0.218c10.089-15.473 27.314-25.558 46.893-25.558 30.817 0 55.799 24.982 55.799 55.799 0 10.243-2.76 19.841-7.576 28.091l0.143-0.265z" />
<glyph unicode="&#xe92a;" glyph-name="bot" horiz-adv-x="997" d="M368.797 455.837c-53.438 0-96.757-43.32-96.757-96.758s43.32-96.758 96.758-96.758c53.438 0 96.758 43.32 96.758 96.758 0 0.037 0 0.073 0 0.11v-0.006c-0.089 53.381-43.369 96.623-96.755 96.653h-0.003zM368.797 295.184c-35.266 0.030-63.843 28.625-63.843 63.895 0 35.289 28.607 63.896 63.896 63.896 35.252 0 63.836-28.547 63.895-63.785v-0.006c0-35.328-28.624-63.97-63.945-64h-0.003zM621.662 455.837c-0.015 0-0.034 0-0.052 0-53.438 0-96.758-43.32-96.758-96.758s43.32-96.758 96.758-96.758c53.438 0 96.758 43.32 96.758 96.758 0 0.037 0 0.074 0 0.11v-0.006c-0.119 53.35-43.351 96.564-96.697 96.653h-0.009zM621.662 295.184c-35.288 0-63.895 28.607-63.895 63.896s28.607 63.896 63.896 63.896c35.252 0 63.836-28.547 63.895-63.785v-0.006c0 0 0 0 0 0 0-35.309-28.594-63.94-63.89-64h-0.006zM409.225 365.432c3.601-22.187-11.465-43.093-33.652-46.694s-43.093 11.465-46.694 33.652c-3.601 22.187 11.465 43.093 33.652 46.694s43.093-11.465 46.694-33.652zM662.361 359.079c0-22.477-18.221-40.699-40.699-40.699s-40.699 18.221-40.699 40.699c0 22.477 18.221 40.699 40.699 40.699s40.699-18.221 40.699-40.699zM956.761 544.131l-55.484 22.936c-3.866 39.34-21.264 136.15-100.362 211.122-32.703 30.68-72.043 54.715-115.595 69.695l-2.27 0.679-49.058 80.091c-11.536 18.868-32.001 31.285-55.371 31.347h-171.111c-0.074 0-0.161 0-0.248 0-26.514 0-49.271-16.083-59.048-39.026l-0.159-0.419-31.869-71.732c-46.185-15.587-85.84-39.732-118.924-70.794l0.171 0.159c-80.039-75.807-96.914-173.976-100.519-212.428l-56.999-23.719c-23.62-9.871-39.915-32.785-39.915-59.506 0 0 0-0.001 0-0.001v0-171.102c0.082-23.359 12.493-43.801 31.063-55.166l0.284-0.162 77.322-47.282c14.218-43.119 33.421-80.579 57.46-114.358l-0.879 1.3c51.827-73.091 152.189-159.765 336.405-159.765h8.15c184.842 0 281.809 92.63 330.658 170.736 18.849 29.781 34.828 64.097 46.187 100.453l0.834 3.096 77.897 47.647c18.89 11.537 31.315 32.030 31.347 55.427v171.212c0 0.009 0 0.021 0 0.032 0 26.74-16.32 49.669-39.542 59.37l-0.425 0.157zM786.756 96.914c-7.444-9.609-14.815-18.123-22.613-26.223l0.096 0.1-81.972 85.159h-345.287l-90.436-94.041c-9.108 8.164-17.481 16.519-25.388 25.302l-0.264 0.298v396.539c0.366 4.598 6.844 63.634 90.279 104.176 19.801-34.168 75.076-104.49 194.56-106.423h0.313c112.64 1.567 168.229 64.47 190.798 100.258 82.86-40.438 89.496-99.265 89.913-104.020zM668.473 609.28c-14.42-25.443-60.029-87.562-162.586-89.182-116.14 1.829-158.772 79.987-166.661 96.914l2.194 199.732c44.199 13.322 94.877 19.122 151.51 17.45v-0.366h12.434v0.418c61.753 1.776 116.245-5.224 163.109-21.211zM383.216 905.456c4 9.613 13.318 16.248 24.184 16.248 0.038 0 0.077 0 0.115 0h171.096c9.593-0.058 17.975-5.187 22.608-12.838l0.067-0.119 27.899-45.61c-31.361 6.224-67.418 9.786-104.306 9.786-9.050 0-18.050-0.214-26.995-0.638l1.264 0.048c-7.479 0.36-16.244 0.565-25.057 0.565-38.987 0-77.037-4.010-113.76-11.64l3.608 0.627zM104.647 549.355v0zM38.4 311.432v171.102c0 0.033 0 0.071 0 0.109 0 10.867 6.635 20.184 16.076 24.121l0.173 0.064 41.221 17.136v-262.531l-44.878 27.481c-7.599 4.659-12.592 12.919-12.592 22.345 0 0.061 0 0.121 0.001 0.182v-0.009zM134.374 262.217v287.033c0 1.149 1.672 117.917 89.496 201.143 22.44 21.184 48.597 38.74 77.338 51.544l1.761 0.701-1.985-177.006c-113.006-51.409-118.23-136.411-118.387-140.121v-346.54c-22.063 35.414-38.83 76.706-47.907 120.806l-0.42 2.439zM505.992-25.704c-91.22-0.522-167.863 20.898-229.198 63.53l76.643 79.778h312.686l69.956-72.411c-59.977-47.804-136.934-71.628-230.191-70.896zM825.156 157.153v322.194c0 3.709-5.224 88.816-118.23 140.225v177.633c25.847-12.781 48.062-28.32 67.591-46.683l-0.143 0.133c87.562-82.756 89.496-200.255 89.496-201.456v-267.494c-6.608-46.364-20.228-88.246-39.863-126.535l1.045 2.244zM958.485 313.104c-0.045-9.581-5.179-17.953-12.837-22.555l-0.119-0.067-45.401-27.794c1.567 9.3 2.142 15.047 2.247 15.673v246.857l39.863-16.457c9.557-4.026 16.144-13.314 16.144-24.141 0-0.017 0-0.034 0-0.051v0.003z" />
<glyph unicode="&#xe92b;" d="M307.274 616.909l180.586 81.009c4.534 2.041 9.41 3.089 14.323 3.089h11.722c4.678 0 9.32-0.993 13.655-2.926l183.512-82.183c0 0 29.766-14.721 28.322-46.257 0 0 6.268-280.488-212.592-394.84 0 0-19.525-7.387-36.161 0 0 0-204.609 86.626-213.766 394.84-0.018-0.036-2.113 30.29 30.399 47.269z" />
<glyph unicode="&#xe92c;" d="M474.927 848.863l-2.782 30.489c-100.39-9.158-195.054-53.591-266.598-125.117-71.526-71.526-115.959-166.208-125.117-266.598l30.489-2.782c17.629 193.302 170.706 346.379 364.007 364.007z" />
<glyph unicode="&#xe92d;" d="M913.026 484.856l30.489 2.782c-9.158 100.48-53.663 195.216-125.297 266.761-71.635 71.562-166.443 115.941-266.941 124.99l-2.745-30.489c193.554-17.412 346.848-170.507 364.495-364.044z" />
<glyph unicode="&#xe92e;" d="M547.826 46.667l2.691-30.507c100.661 8.869 195.65 53.193 267.447 124.81 71.797 71.58 116.375 166.425 125.55 267.013l-30.489 2.782c-17.683-193.88-171.266-347.011-365.2-364.098z" />
<glyph unicode="&#xe92f;" d="M110.92 410.765l-30.489-2.782c18.911-207.39 183.115-372.081 390.432-391.588l2.872 30.471c-192.651 18.153-345.241 171.175-362.815 363.899z" />
<glyph unicode="&#xe930;" d="M1003.192 462.061h-145.599c-0.993 0-1.951-0.126-2.872-0.361-8.435 178.039-152.77 321.074-331.333 327.45 0.506 1.337 0.813 2.764 0.813 4.281v145.599c0 6.575-5.328 11.903-11.903 11.903h-4.696c-6.575 0-11.903-5.328-11.903-11.903v-145.599c0-1.535 0.307-2.998 0.831-4.353-177.624-7.369-320.911-149.988-329.328-327.359-0.903 0.217-1.842 0.343-2.8 0.343h-143.865c-6.539 0-11.831-5.292-11.831-11.831v-4.841c0-6.539 5.292-11.831 11.831-11.831h143.847c0.903 0 1.77 0.108 2.601 0.289 5.888-180.279 151.054-325.896 331.152-332.543-0.253-0.975-0.415-1.987-0.415-3.053v-141.608c0-6.484 5.256-11.758 11.758-11.758h5.003c6.484 0 11.758 5.256 11.758 11.758v141.608c0 1.084-0.163 2.131-0.433 3.125 179.159 7.64 323.259 152.878 329.129 332.471 0.867-0.199 1.752-0.307 2.673-0.307h145.599c6.575 0 11.903 5.328 11.903 11.903v4.696c-0.018 6.593-5.346 11.921-11.921 11.921zM510.961 119.927c-179.358 0-325.3 145.924-325.3 325.3s145.924 325.3 325.3 325.3 325.3-145.924 325.3-325.3-145.943-325.3-325.3-325.3z" />
<glyph unicode="&#xe931;" d="M366.482 437.876l22.108 23.788c0 0 11.596 9.248 21.458 0l67.589-72.989 144.624 156.166c0 0 10.512 9.013 21.891 0l21.891-24.023c0 0 10.079-11.542 0-22.867l-177.244-191.044c0 0-9.121-10.277-21.783 0l-100.534 107.651c0 0-9.483 9.754 0 23.318z" />
<glyph unicode="&#xe932;" d="M478.251 302.030c-3.287 0-7.171 1.156-11.433 4.624l-100.57 107.687c-0.090 0.090-9.573 10.115-0.036 23.734l0.036 0.036 22.108 23.788c0.163 0.126 11.957 9.338 21.928 0.018l67.372-72.755 144.389 155.895c0.126 0.108 10.873 9.103 22.325 0.036l21.928-24.059c0.108-0.126 10.169-11.903 0-23.3l-177.244-191.044c-0.072-0.072-4.245-4.66-10.801-4.66zM366.753 437.677c-9.212-13.185-0.108-22.794-0.018-22.903l100.534-107.651c12.228-9.916 20.934-0.415 21.295 0l177.244 191.044c9.772 10.964 0.090 22.325 0 22.433l-21.873 24.023c-11 8.706-21.331 0.054-21.44-0.036l-144.841-156.382-0.235 0.253-67.589 72.989c-9.537 8.923-20.898 0.054-21.006-0.036l-22.072-23.734z" />
<glyph unicode="&#xe933;" d="M474.837 851.952l-2.8 30.706c-101.076-9.212-196.39-53.952-268.422-125.984-72.014-72.014-116.754-167.346-125.984-268.422l30.706-2.8c17.755 194.62 171.88 348.745 366.5 366.5z" />
<glyph unicode="&#xe934;" d="M915.934 485.452l30.706 2.8c-9.23 101.166-54.024 196.553-126.146 268.603-72.14 72.050-167.581 116.736-268.765 125.839l-2.764-30.706c194.873-17.52 349.214-171.681 366.97-366.536z" />
<glyph unicode="&#xe935;" d="M548.242 44.247l2.709-30.706c101.347 8.941 196.986 53.554 269.271 125.659 72.285 72.086 117.169 167.563 126.399 268.856l-30.706 2.8c-17.773-195.216-172.404-349.395-367.674-366.608z" />
<glyph unicode="&#xe936;" d="M108.337 410.855l-30.706-2.8c19.038-208.799 184.361-374.628 393.106-394.28l2.89 30.688c-193.97 18.261-347.589 172.349-365.29 366.392z" />
<glyph unicode="&#xe937;" d="M1006.714 462.495h-146.593c-0.993 0-1.951-0.126-2.89-0.361-8.489 179.267-153.818 323.277-333.609 329.689 0.524 1.337 0.813 2.782 0.813 4.299v146.611c0 6.611-5.364 11.993-11.993 11.993h-4.732c-6.611 0-11.993-5.364-11.993-11.993v-146.593c0-1.553 0.307-3.016 0.831-4.389-178.852-7.424-323.115-151.018-331.586-329.599-0.903 0.217-1.842 0.343-2.818 0.343h-144.805c-6.575 0-11.921-5.328-11.921-11.921v-4.877c0-6.575 5.328-11.921 11.921-11.921h144.823c0.903 0 1.77 0.108 2.619 0.307 5.924-181.507 152.102-328.136 333.41-334.819-0.271-0.975-0.415-2.005-0.415-3.071v-142.583c0-6.539 5.292-11.831 11.831-11.831h5.039c6.539 0 11.831 5.292 11.831 11.831v142.583c0 1.084-0.163 2.149-0.433 3.143 180.387 7.694 325.481 153.926 331.387 334.747 0.867-0.199 1.77-0.307 2.691-0.307h146.593c6.611 0 11.993 5.364 11.993 11.993v4.732c0 6.629-5.364 11.993-11.993 11.993zM511.106 118.031c-180.604 0-327.522 146.918-327.522 327.522s146.918 327.522 327.522 327.522 327.522-146.936 327.522-327.522-146.918-327.522-327.522-327.522z" />
<glyph unicode="&#xe938;" d="M769.648 313.518l-250.703 422.222c-3.793 6.394-13.294 6.394-17.087-0.018l-250.035-422.222c-3.775-6.376 0.957-14.341 8.543-14.341h500.738c7.586 0 12.336 7.965 8.543 14.359zM509.516 332.682c-16.726 0-30.29 12.644-30.29 28.249s13.565 28.249 30.29 28.249c16.726 0 30.29-12.644 30.29-28.249s-13.565-28.249-30.29-28.249zM544.449 583.674l-14.847-148.489c0-0.072 0.018-0.144 0.018-0.199 0-10.476-9.103-18.947-20.338-18.947-10.187 0-18.586 6.99-20.067 16.093h-0.018l-0.036 0.325c-0.090 0.596-0.144 1.21-0.163 1.824l-13.601 150.151c-0.271 1.644-0.452 3.305-0.452 5.003 0 18.044 15.696 32.675 35.041 32.675s35.041-14.63 35.041-32.675c0-1.987-0.217-3.901-0.578-5.762z" />
<glyph unicode="&#xe939;" d="M509.986 622.074c-19.345 0-35.041-14.63-35.041-32.675 0-1.698 0.181-3.36 0.452-5.003l13.601-150.151c0.018-0.614 0.072-1.228 0.163-1.824l0.036-0.325h0.018c1.481-9.103 9.898-16.093 20.067-16.093 11.235 0 20.338 8.489 20.338 18.947 0 0.072-0.018 0.144-0.018 0.199l14.847 148.489c0.361 1.86 0.578 3.775 0.578 5.744 0 18.062-15.696 32.693-35.041 32.693z" />
<glyph unicode="&#xe93a;" d="M539.807 360.931c0-15.602-13.561-28.249-30.29-28.249s-30.29 12.648-30.29 28.249c0 15.602 13.561 28.249 30.29 28.249s30.29-12.648 30.29-28.249z" />
<glyph unicode="&#xe93b;" glyph-name="sigfox-2" d="M850.151-26.991h0.018l-0.144 0.307c-0.289 0.777-0.632 1.535-1.011 2.276l-301.964 682.462h-1.048c43.313 14.341 74.651 55.18 74.651 103.244 0 59.966-48.786 108.734-108.734 108.734s-108.734-48.786-108.734-108.734c0-48.063 31.338-88.902 74.651-103.244h-0.217l-298.008-684.539c-1.21-2.673-1.915-5.617-1.915-8.742 0-11.65 9.447-21.115 21.097-21.115 8.67 0 16.111 5.238 19.363 12.698v0l0.054 0.126c0.018 0.036 0.036 0.072 0.036 0.090l48.569 110.794h494.868l48.93-109.15c3.071-7.875 10.693-13.456 19.652-13.456 11.65 0 21.097 9.447 21.097 21.097 0.054 2.529-0.397 4.913-1.21 7.153zM650.492 318.557l-98.728 70.388 52.489 36.233 46.239-106.621zM511.919 633.056l74.832-168.701-71.869-49.978-74.344 53.32 71.382 165.359zM423.053 427.707l55.397-38.328-102.882-70.822 47.486 109.15zM514.899 363.55l135.611-96.217-135.611-55.397-139.314 55.397 139.314 96.217zM339.75 236.916l116.628-46.239-164.547-65.403 47.919 111.642zM368.902 110.282l145.979 58.323 147.261-58.323h-293.24zM570.512 190.262l117.043 46.655 47.901-111.642-164.944 64.988zM732.422 881.664c-2.059 2.89-4.696 5.346-7.731 7.207-0.036 0.036-0.072 0.072-0.108 0.108l-0.018-0.018c-3.919 2.348-8.471 3.721-13.384 3.721-14.396 0-26.064-11.668-26.064-26.064 0-5.762 1.897-11.090 5.075-15.407l-0.018-0.018c0 0 0.054-0.036 0.090-0.072 1.662-2.24 3.667-4.208 5.961-5.816 11.831-12.716 36.702-45.86 34.119-97.825 0 0 1.499-43.909-35.962-85.524-3.829-2.312-7.008-5.563-9.23-9.447-0.018-0.018-0.018-0.018-0.036-0.036v0c-2.149-3.793-3.378-8.146-3.378-12.824 0-14.396 11.668-26.064 26.064-26.064 5.852 0 11.253 1.951 15.606 5.22v0c0 0 0.054 0.036 0.072 0.054 1.734 1.3 3.287 2.8 4.642 4.479 13.637 13.944 52.453 59.587 53.554 128.874-0.018 0 5.816 74.741-49.256 129.452zM877.118 940.005c-2.131 3.522-5.057 6.52-8.543 8.706-0.018 0.018-0.054 0.054-0.072 0.072l-0.018-0.018c-4.028 2.529-8.796 4.010-13.926 4.010-14.576 0-26.371-11.813-26.371-26.371 0-5.401 1.626-10.422 4.425-14.612v0c0 0 0 0 0 0 2.131-3.179 4.949-5.87 8.218-7.875 18.243-19.146 60.201-73.296 55.83-163.174 0 0-1.68-73.369-62.224-138.212-3.468-2.186-6.394-5.166-8.507-8.688-0.018-0.018-0.054-0.054-0.072-0.072l0.018-0.018c-2.366-3.956-3.757-8.58-3.757-13.529 0-14.558 11.813-26.371 26.371-26.371 5.87 0 11.271 1.933 15.642 5.184l0.018-0.018c0 0 0.090 0.072 0.253 0.217 1.644 1.246 3.143 2.655 4.461 4.245 17.015 16.906 74.669 81.46 78.986 182.862-0.018-0.036 10.332 107.181-70.732 193.663zM337.691 650.486v0c0 0.018-0.018 0.036-0.018 0.036-2.222 3.883-5.401 7.135-9.23 9.447-37.461 41.633-35.962 85.524-35.962 85.524-2.583 51.965 22.307 85.109 34.119 97.825 2.294 1.608 4.281 3.576 5.961 5.816 0.036 0.036 0.090 0.072 0.090 0.072l-0.018 0.018c3.179 4.317 5.075 9.627 5.075 15.407 0 14.396-11.668 26.064-26.064 26.064-4.895 0-9.465-1.373-13.384-3.721l-0.018 0.018c-0.036-0.036-0.072-0.072-0.108-0.108-3.053-1.86-5.69-4.299-7.731-7.207-55.072-54.71-49.256-129.452-49.256-129.452 1.12-69.287 39.917-114.93 53.554-128.874 1.355-1.68 2.926-3.179 4.642-4.479 0.018-0.018 0.072-0.054 0.072-0.054v0c4.353-3.269 9.736-5.22 15.606-5.22 14.396 0 26.064 11.668 26.064 26.064 0 4.66-1.246 9.031-3.396 12.824zM196.968 591.766c-0.018 0.018-0.054 0.054-0.072 0.072-2.131 3.522-5.039 6.484-8.507 8.688-60.563 64.861-62.224 138.212-62.224 138.212-4.371 89.877 37.587 144.028 55.83 163.174 3.269 2.005 6.087 4.678 8.218 7.875 0 0 0 0 0 0v0c2.8 4.19 4.425 9.212 4.425 14.612 0 14.558-11.813 26.371-26.371 26.371-5.13 0-9.88-1.481-13.944-4.010l-0.018 0.018c-0.018-0.018-0.054-0.054-0.072-0.072-3.486-2.204-6.412-5.184-8.543-8.706-81.063-86.464-70.713-193.681-70.713-193.681 4.317-101.401 61.989-165.937 78.986-182.862 1.3-1.589 2.818-2.998 4.461-4.245 0.163-0.144 0.253-0.217 0.253-0.217l0.018 0.018c4.371-3.233 9.772-5.184 15.642-5.184 14.558 0 26.371 11.813 26.371 26.371 0 4.949-1.391 9.573-3.757 13.529l0.018 0.036z" />
<glyph unicode="&#xe93c;" glyph-name="sigfox" d="M659.776 706.822c0-27.581 22.361-49.924 49.924-49.924 25.034 0 45.77 18.423 49.364 42.464 0.018 0 13.167 47.847-0.036 115.128-3.739 23.86-24.402 42.121-49.328 42.121-27.581 0-49.924-22.361-49.924-49.924 0-6.123 1.102-11.993 3.125-17.43 2.113-10.657 4.19-31.88-0.686-66.993-1.589-4.859-2.438-10.061-2.438-15.443zM909.034 922.304c-0.939 2.908-2.113 5.708-3.558 8.345-8.291 15.335-24.51 25.739-43.151 25.739-27.093 0-49.057-21.964-49.057-49.057 0-8.038 1.951-15.624 5.383-22.325 10.025-23.553 49.906-130.283 6.683-249.132-5.69-7.117-9.447-15.859-10.458-25.414-0.181-1.716-0.271-3.45-0.271-5.202 0-27.093 21.964-49.057 49.057-49.057 20.338 0 37.768 12.373 45.21 30.001-0.018 0 76.349 152.427 0.163 336.101zM308.502 656.898c27.581 0 49.924 22.361 49.924 49.924 0 5.401-0.867 10.584-2.438 15.443-4.859 35.113-2.782 56.336-0.668 67.011 2.023 5.419 3.125 11.289 3.125 17.43 0 27.581-22.361 49.924-49.924 49.924-24.926 0-45.571-18.261-49.328-42.121-13.203-67.3-0.054-115.128-0.054-115.146 3.612-24.041 24.33-42.464 49.364-42.464zM203.362 610.46c-1.011 9.555-4.768 18.297-10.458 25.414-43.223 118.867-3.342 225.579 6.683 249.132 3.432 6.701 5.383 14.287 5.383 22.325 0 27.093-21.964 49.057-49.057 49.057-18.64 0-34.86-10.404-43.169-25.739-1.427-2.637-2.619-5.437-3.558-8.345-76.168-183.674 0.181-336.101 0.181-336.101 7.442-17.629 24.89-30.001 45.21-30.001 27.093 0 49.057 21.964 49.057 49.057 0 1.752-0.090 3.486-0.271 5.202zM820.403-7.104l-0.163 0.415c-0.741 2.836-1.77 5.545-3.053 8.11l-256.501 679.68c21.259 15.425 35.095 40.441 35.095 68.691 0 46.853-37.985 84.838-84.838 84.838s-84.838-37.985-84.838-84.838c0-28.267 13.836-53.283 35.095-68.691l-257.26-680.963c-0.415-0.957-0.777-1.951-1.12-2.944l-0.325-0.867c-1.3-4.064-2.023-8.399-2.023-12.914 0-23.3 18.893-42.193 42.193-42.193 15.552 0 29.098 8.435 36.413 20.97l0.036-0.018 0.072 0.181c1.951 3.36 3.432 7.026 4.389 10.892l25.341 62.947 365.922 103.063 63.633-166.461c0.885-3.739 2.24-7.297 4.046-10.584l0.018-0.036c7.189-13.023 21.042-21.837 36.955-21.837 23.3 0 42.193 18.893 42.193 42.193 0.018 3.576-0.47 7.026-1.319 10.35l0.036 0.018zM511.467 571.356l55.595-144.66-128.585-47.269 72.989 191.929zM345.096 135.226l45.733 121.974 164.872-62.766-210.605-59.208zM492.592 308.623l103.189 40.062 36.522-94.321-139.711 54.259z" />
<glyph unicode="&#xe93d;" glyph-name="power-analyzer-device-4" d="M740.713 264.696h84.585v-21.097h-84.585v21.097zM191.947 264.696h84.585v-21.097h-84.585v21.097zM954.424 371.443v27.473h34.39v115.11h-34.39v78.805h-251.913v131.818h-359.546v-128.892h-275.358v-63.976h-57.871v-84.314h57.871v-70.117h-58.666v-84.314h58.648v-118.343h350.081l-0.686 65.909h207.191v-65.909h330.249v112.419h60.671v84.332h-60.671zM934.682 194.452h-290.765v65.909h-246.874l0.686-65.909h-310.399v381.582h275.358v128.892h320.062v-131.818h251.931v-378.656zM331.062 474.488h-183.855c-8.327 0-15.082-6.755-15.082-15.082s6.755-15.082 15.082-15.082h183.855c8.327 0 15.082 6.755 15.082 15.082s-6.755 15.082-15.082 15.082zM331.062 385.658h-183.855c-8.327 0-15.082-6.755-15.082-15.082s6.755-15.082 15.082-15.082h183.855c8.327 0 15.082 6.755 15.082 15.082s-6.755 15.082-15.082 15.082zM601.489 474.488h-183.855c-8.327 0-15.082-6.755-15.082-15.082s6.755-15.082 15.082-15.082h183.855c8.327 0 15.082 6.755 15.082 15.082s-6.737 15.082-15.082 15.082zM601.489 385.658h-183.855c-8.327 0-15.082-6.755-15.082-15.082s6.755-15.082 15.082-15.082h183.855c8.327 0 15.082 6.755 15.082 15.082s-6.737 15.082-15.082 15.082zM672.979 459.406c0-8.327 6.755-15.082 15.082-15.082h183.855c8.327 0 15.082 6.755 15.082 15.082s-6.755 15.082-15.082 15.082h-183.855c-8.327 0-15.082-6.755-15.082-15.082zM871.934 385.658h-183.873c-8.327 0-15.082-6.755-15.082-15.082s6.755-15.082 15.082-15.082h183.855c8.327 0 15.082 6.755 15.082 15.082 0.018 8.327-6.737 15.082-15.064 15.082z" />
<glyph unicode="&#xe93e;" glyph-name="power-analyzer-device-3" d="M4.281 532.052v-85.073h69.72v85.073h-11.325zM3.486 376.23v-85.073h70.515v85.073h-11.325zM957.495 370.251h-11.108v-85.073h72.321v85.073zM992.192 397.977v116.14h-46.745v-116.14h12.047zM683.383 706.732h-322.952v-130.048h-277.851v-385.014h313.198l-0.686 66.505h249.096v-66.505h293.402v382.052h-254.207v133.010zM277.815 235.273h-85.362v27.256h85.362v-27.256zM328.515 358.132h-185.517c-8.399 0-15.226 6.809-15.226 15.226 0 8.399 6.809 15.226 15.226 15.226h185.517c8.399 0 15.226-6.809 15.226-15.226-0.018-8.399-6.828-15.226-15.226-15.226zM328.515 447.774h-185.517c-8.399 0-15.226 6.809-15.226 15.226 0 8.399 6.809 15.226 15.226 15.226h185.517c8.399 0 15.226-6.809 15.226-15.226-0.018-8.417-6.828-15.226-15.226-15.226zM601.381 358.132h-185.517c-8.399 0-15.226 6.809-15.226 15.226 0 8.399 6.809 15.226 15.226 15.226h185.517c8.399 0 15.226-6.809 15.226-15.226 0-8.399-6.828-15.226-15.226-15.226zM601.381 447.774h-185.517c-8.399 0-15.226 6.809-15.226 15.226 0 8.399 6.809 15.226 15.226 15.226h185.517c8.399 0 15.226-6.809 15.226-15.226s-6.828-15.226-15.226-15.226zM827.194 241.251h-85.362v21.277h85.362v-21.277zM874.246 358.132h-185.517c-8.399 0-15.226 6.809-15.226 15.226 0 8.399 6.809 15.226 15.226 15.226h185.517c8.399 0 15.226-6.809 15.226-15.226 0-8.399-6.809-15.226-15.226-15.226zM688.73 478.227h185.517c8.399 0 15.226-6.809 15.226-15.226s-6.809-15.226-15.226-15.226h-185.517c-8.399 0-15.226 6.809-15.226 15.226 0 8.399 6.809 15.226 15.226 15.226z" />
<glyph unicode="&#xe93f;" glyph-name="power-analyzer-device-2" d="M75.789 532.359h-69.576v-84.91h69.576zM75.789 376.844h-70.37v-84.91h70.37zM957.603 370.883h-11.090v-84.928h72.195v84.928zM945.592 398.537h46.655v115.941h-46.655zM684.015 573.957v132.757h-322.338v-129.813h-277.309v-384.291h312.602l-0.686 66.379h248.626v-66.379h292.842v381.347h-253.738zM141.535 514.351c0.379 0.036 0.759 0.054 1.138 0.054h185.156c0.777 0 1.553-0.054 2.312-0.181 2.258-0.343 4.353-1.192 6.177-2.42 1.21-0.813 2.294-1.806 3.233-2.926 0.921-1.12 1.698-2.384 2.276-3.757 0.777-1.824 1.192-3.811 1.192-5.906 0-8.399-6.809-15.19-15.19-15.19h-185.156c-8.399 0-15.19 6.809-15.19 15.19 0 8.002 6.195 14.54 14.052 15.136zM142.673 436.883h185.156c8.381 0 15.19-6.809 15.19-15.19 0-8.399-6.809-15.19-15.19-15.19h-185.156c-8.399 0-15.19 6.791-15.19 15.19 0 8.381 6.791 15.19 15.19 15.19zM276.893 238.144h-85.199v21.241h85.199v-21.241zM329.834 328.961h-185.174c-8.381 0-15.19 6.791-15.19 15.19 0 8.381 6.809 15.19 15.19 15.19h185.174c8.381 0 15.19-6.791 15.19-15.19 0-8.381-6.809-15.19-15.19-15.19zM401.017 505.122c0.578 1.355 1.355 2.619 2.276 3.757s2.023 2.113 3.233 2.926c1.824 1.228 3.919 2.077 6.177 2.42 0.759 0.108 1.517 0.181 2.312 0.181h185.174c0.777 0 1.553-0.054 2.312-0.181 2.258-0.343 4.353-1.192 6.177-2.42 1.21-0.813 2.294-1.806 3.233-2.926 0.921-1.12 1.698-2.384 2.276-3.757 0.777-1.824 1.192-3.811 1.192-5.906 0-8.399-6.809-15.19-15.19-15.19h-185.174c-8.381 0-15.19 6.809-15.19 15.19 0 2.095 0.433 4.1 1.192 5.906zM400.132 424.745c0.199 0.993 0.506 1.951 0.885 2.854s0.849 1.77 1.409 2.583c0.813 1.21 1.806 2.294 2.926 3.233 0.759 0.614 1.553 1.174 2.42 1.644 2.149 1.174 4.624 1.842 7.243 1.842h185.174c8.381 0 15.19-6.809 15.19-15.19 0-8.399-6.809-15.19-15.19-15.19h-185.174c-8.381 0-15.19 6.791-15.19 15.19 0 1.030 0.108 2.059 0.307 3.034zM602.176 328.961h-185.174c-8.381 0-15.19 6.791-15.19 15.19 0 8.381 6.809 15.19 15.19 15.19h185.174c8.381 0 15.19-6.791 15.19-15.19 0-8.381-6.809-15.19-15.19-15.19zM686.237 514.351c0.379 0.036 0.759 0.054 1.138 0.054h185.174c0.777 0 1.553-0.054 2.312-0.181 2.258-0.343 4.353-1.192 6.177-2.42 1.21-0.813 2.294-1.806 3.233-2.926 0.921-1.12 1.698-2.384 2.276-3.757 0.777-1.824 1.192-3.811 1.192-5.906 0-8.399-6.809-15.19-15.19-15.19h-185.174c-8.399 0-15.19 6.809-15.19 15.19 0 8.002 6.195 14.54 14.052 15.136zM687.375 436.883h185.174c8.381 0 15.19-6.809 15.19-15.19 0-8.399-6.809-15.19-15.19-15.19h-185.174c-8.399 0-15.19 6.791-15.19 15.19 0 8.381 6.791 15.19 15.19 15.19zM823.582 238.144h-85.199v21.241h85.199v-21.241zM874.535 328.961v0h-185.174c-8.381 0-15.19 6.791-15.19 15.19 0 8.381 6.809 15.19 15.19 15.19h185.174c8.381 0 15.19-6.809 15.19-15.19s-6.809-15.19-15.19-15.19zM600.189 514.406c0.777 0 1.553-0.054 2.312-0.181-0.759 0.126-1.517 0.181-2.312 0.181h-185.174c-0.777 0-1.553-0.054-2.312-0.181 0.759 0.108 1.517 0.181 2.312 0.181h185.174zM401.017 505.122c0.578 1.355 1.355 2.619 2.276 3.757-0.921-1.138-1.698-2.384-2.276-3.757zM611.911 508.879c0.921-1.12 1.698-2.384 2.276-3.757-0.578 1.373-1.355 2.619-2.276 3.757zM405.352 433.415c0.759 0.614 1.553 1.174 2.42 1.644-0.849-0.488-1.662-1.030-2.42-1.644zM415.015 406.502c-8.381 0-15.19 6.809-15.19 15.19 0-8.399 6.809-15.19 15.19-15.19zM339.551 508.879c0.921-1.12 1.698-2.384 2.276-3.757-0.578 1.373-1.355 2.619-2.276 3.757zM142.673 484.025c-8.381 0-15.19 6.809-15.19 15.19 0-8.381 6.791-15.19 15.19-15.19zM327.829 514.406c0.777 0 1.553-0.054 2.312-0.181-0.759 0.126-1.535 0.181-2.312 0.181h-185.156c-0.379 0-0.759-0.036-1.138-0.054 0.379 0.036 0.759 0.054 1.138 0.054h185.156zM602.176 359.342c8.381 0 15.19-6.809 15.19-15.19 0 8.399-6.809 15.19-15.19 15.19zM401.812 344.151c0-8.399 6.809-15.19 15.19-15.19-8.381 0-15.19 6.809-15.19 15.19zM142.673 406.502c-8.381 0-15.19 6.809-15.19 15.19 0-8.399 6.791-15.19 15.19-15.19zM329.834 359.342c8.381 0 15.19-6.809 15.19-15.19 0 8.399-6.809 15.19-15.19 15.19zM129.47 344.151c0-8.399 6.809-15.19 15.19-15.19-8.381 0-15.19 6.809-15.19 15.19zM687.375 484.025c-8.381 0-15.19 6.809-15.19 15.19 0-8.381 6.791-15.19 15.19-15.19zM872.548 514.406c0.777 0 1.553-0.054 2.312-0.181-0.759 0.126-1.517 0.181-2.312 0.181h-185.174c-0.379 0-0.759-0.036-1.138-0.054 0.379 0.036 0.759 0.054 1.138 0.054h185.174zM884.271 508.879c0.921-1.12 1.698-2.384 2.276-3.757-0.578 1.373-1.355 2.619-2.276 3.757zM674.171 344.151c0-8.399 6.809-15.19 15.19-15.19-8.381 0-15.19 6.809-15.19 15.19zM874.517 328.961v0c8.399 0 15.208 6.809 15.208 15.19-0.018-8.381-6.809-15.19-15.208-15.19zM687.375 406.502c-8.381 0-15.19 6.809-15.19 15.19 0-8.399 6.791-15.19 15.19-15.19z" />
<glyph unicode="&#xe940;" glyph-name="power-analyzer-device" d="M157.954 482.237h179.899c8.146 0 14.757 6.611 14.757 14.757s-6.611 14.757-14.757 14.757h-179.899c-8.146 0-14.757-6.611-14.757-14.757s6.611-14.757 14.757-14.757zM157.954 406.918h179.899c8.146 0 14.757 6.611 14.757 14.757s-6.611 14.757-14.757 14.757h-179.899c-8.146 0-14.757-6.611-14.757-14.757s6.611-14.757 14.757-14.757zM339.786 361.112h-179.899c-8.146 0-14.757-6.611-14.757-14.757s6.611-14.757 14.757-14.757h179.899c8.146 0 14.757 6.611 14.757 14.757s-6.611 14.757-14.757 14.757zM422.547 482.237h179.899c8.146 0 14.757 6.611 14.757 14.757s-6.611 14.757-14.757 14.757h-179.899c-8.146 0-14.757-6.611-14.757-14.757s6.611-14.757 14.757-14.757zM422.547 406.918h179.899c8.146 0 14.757 6.611 14.757 14.757s-6.611 14.757-14.757 14.757h-179.899c-8.146 0-14.757-6.611-14.757-14.757s6.611-14.757 14.757-14.757zM604.379 361.112h-179.899c-8.146 0-14.757-6.611-14.757-14.757s6.611-14.757 14.757-14.757h179.899c8.146 0 14.757 6.611 14.757 14.757s-6.611 14.757-14.757 14.757zM687.14 482.237h179.899c8.146 0 14.757 6.611 14.757 14.757s-6.611 14.757-14.757 14.757h-179.899c-8.146 0-14.757-6.611-14.757-14.757s6.611-14.757 14.757-14.757zM687.14 406.918h179.899c8.146 0 14.757 6.611 14.757 14.757s-6.611 14.757-14.757 14.757h-179.899c-8.146 0-14.757-6.611-14.757-14.757s6.611-14.757 14.757-14.757zM868.972 361.112h-179.899c-8.146 0-14.757-6.611-14.757-14.757s6.611-14.757 14.757-14.757h179.899c8.146 0 14.757 6.611 14.757 14.757s-6.611 14.757-14.757 14.757zM203.994 267.857h82.761v-26.443h-82.761v26.443zM736.721 267.857h82.761v-20.645h-82.761v20.645zM949.367 372.31v28.809h68.817v142.926h-68.817v48.425h-246.495v128.982h-358.86v-126.11h-269.416v-66.126l-66.595-2.547v-79.185l66.595-0.777v-68.6h-67.372v-82.49h67.372v-119.319h349.63l-0.668 64.482h195.614v-64.482h330.195v113.539h69.341v82.472h-69.341zM922.978 202.67h-277.417v64.482h-248.662l0.668-64.482h-296.581v366.265h269.416v126.11h306.082v-128.982h246.495v-363.393z" />
<glyph unicode="&#xe941;" glyph-name="power-analyzer-4" d="M946.603 580.405h69.865v-107.253h-69.865v107.253zM5.419 563.679h69.124v-78.589h-69.124v78.589zM5.419 416.039h69.124v-78.589h-69.124v78.589zM966.634 410.295l3.739-80.81h48.443v80.81zM425.816 470.605v0c-8.038 0.018-14.558 6.539-14.558 14.576s6.52 14.558 14.558 14.558h133.57c5.906 7.568 12.282 14.811 19.164 21.675 21.35 21.35 46.221 38.111 73.911 49.816 28.683 12.138 59.136 18.279 90.51 18.279s61.845-6.159 90.51-18.279c27.689-11.704 52.561-28.466 73.911-49.816 10.458-10.458 19.814-21.765 28.014-33.849v129.307l-257.368 0.144v126.417h-330.592v-125.568h-262.191v-386.441h316.648v61.321h117.531c-5.979 20.772-8.995 42.284-8.995 64.265 0 13.276 1.12 26.389 3.305 39.267h-87.927c-8.038 0-14.558 6.52-14.558 14.558s6.52 14.558 14.558 14.558h94.845c2.294 7.478 4.985 14.847 8.056 22.108 3.36 7.947 7.153 15.642 11.325 23.102h-114.225zM677.856 616.854l0.072-0.054zM280.542 286.425h-81.695v31.88h81.695v-31.88zM330.972 396.279h-177.551c-8.038 0-14.558 6.52-14.558 14.558s6.52 14.558 14.558 14.558h177.551c8.038 0.018 14.558-6.502 14.558-14.558 0-8.038-6.52-14.558-14.558-14.558zM330.972 470.623h-177.551c-8.038 0-14.558 6.52-14.558 14.558s6.52 14.558 14.558 14.558h177.551c8.038 0.018 14.558-6.502 14.558-14.558 0-8.038-6.52-14.558-14.558-14.558zM792.696 559.435c-16.816 4.425-34.463 6.809-52.651 6.809-59.93 0-113.972-25.63-151.777-66.487-8.345-9.013-15.895-18.749-22.542-29.134-20.573-32.133-32.512-70.298-32.512-111.191 0-32.259 7.424-62.802 20.663-90.040 33.541-69.052 104.381-116.772 186.167-116.772 114.027 0 206.812 92.767 206.812 206.812 0 95.838-65.548 176.666-154.161 200.003zM740.044 175.487c-101.419 0-183.945 82.508-183.945 183.927s82.508 183.927 183.945 183.927c101.437 0 183.927-82.508 183.927-183.927s-82.508-183.927-183.927-183.927zM860.212 299.050l-0.108 0.108c-1.987 2.511-4.281 4.768-6.828 6.719l-58.522 57.691 49.093 50.628c2.131 1.752 4.046 3.757 5.744 5.924l0.144 0.144-0.018 0.018c5.13 6.575 8.218 14.829 8.218 23.824 0 21.44-17.376 38.816-38.816 38.816-9.338 0-17.882-3.287-24.583-8.778l-0.018-0.018c-2.24-1.842-4.245-3.938-6.015-6.213l-48.479-50.086-46.022 47.467c-2.727 4.154-6.213 7.749-10.277 10.603l-0.054 0.054v-0.018c-6.286 4.371-13.908 6.954-22.144 6.954-21.44 0-38.816-17.376-38.816-38.816 0-10.097 3.883-19.254 10.187-26.154l-0.036-0.036 0.795-0.813c0.235-0.253 0.47-0.506 0.722-0.741l51.586-52.615-58.648-58.395c-2.167-1.752-4.154-3.703-5.888-5.87l-0.054-0.054v-0.018c-5.364-6.665-8.58-15.1-8.58-24.312 0-21.44 17.376-38.816 38.816-38.816 8.652 0 16.599 2.854 23.047 7.64l0.036-0.036 0.199 0.199c2.926 2.204 5.527 4.805 7.731 7.731l57.42 57.438 57.004-55.18c3.215-4.967 7.532-9.139 12.607-12.192l0.126-0.126 0.036 0.036c5.816-3.468 12.571-5.491 19.832-5.491 21.44 0 38.816 17.376 38.816 38.816 0 9.013-3.107 17.304-8.254 23.896v0.072z" />
<glyph unicode="&#xe942;" glyph-name="power-analyzer-3" d="M911.491 610.533h-80.431l80.431-145.997zM922.653 574.137h69.684v-109.601h-69.684v109.601zM982.818 323.922h29.189v80.575h-70.19zM773.026 504.724c-16.852 0-30.507-13.781-30.507-30.778 0-1.644 0.126-3.251 0.379-4.805l11.939-153.763c0.813-9.103 8.381-16.256 17.611-16.256s16.816 7.153 17.611 16.256l13.005 153.384c0.289 1.68 0.433 3.414 0.433 5.184 0.036 16.997-13.619 30.778-30.471 30.778zM800.932 254.166c0-15.213-12.219-27.545-27.292-27.545s-27.292 12.332-27.292 27.545c0 15.213 12.219 27.545 27.292 27.545s27.292-12.332 27.292-27.545zM1010.923 239.445l-192.38 361.75c-9.013 16.924-25.757 27.039-44.812 27.039-0.018 0-0.036 0-0.054 0-19.092-0.018-35.835-10.169-44.812-27.129l-191.495-362.057c-8.327-15.75-7.821-34.246 1.373-49.508 9.085-15.082 24.962-24.077 42.464-24.077h385.754c17.611 0 33.56 9.049 42.663 24.221 9.23 15.353 9.699 33.957 1.3 49.761zM993.059 199.636c-5.581-9.302-15.335-14.847-26.1-14.847h-385.754c-10.675 0-20.356 5.509-25.919 14.721-5.653 9.392-5.979 20.79-0.849 30.489l191.495 362.039c5.581 10.53 15.949 16.834 27.762 16.852 0.018 0 0.018 0 0.036 0 11.795 0 22.162-6.268 27.762-16.78l192.38-361.75c5.184-9.754 4.877-21.241-0.813-30.724zM539.482 287.328l163.662 303.933 11.903 19.579-40.694-0.307v126.182h-329.671v-125.207h-261.45v-54.042h-68.781v-78.372h68.781v-68.853h-68.781v-78.372h68.781v-105.736h315.763v61.159h131.673l5.78 0.795 3.034-0.759zM277.959 280.988h-81.46v32.837h81.46v-32.837zM335.975 393.046h-177.064c-8.020 0-14.522 6.502-14.522 14.522s6.502 14.522 14.522 14.522h177.064c8.020 0 14.522-6.502 14.522-14.522s-6.502-14.522-14.522-14.522zM335.975 467.191h-177.064c-8.020 0-14.522 6.502-14.522 14.522s6.502 14.522 14.522 14.522h177.064c8.020 0 14.522-6.502 14.522-14.522s-6.502-14.522-14.522-14.522zM418.375 496.235h177.064c8.020 0 14.522-6.502 14.522-14.522s-6.502-14.522-14.522-14.522h-177.064c-8.020 0-14.522 6.502-14.522 14.522s6.502 14.522 14.522 14.522zM417.851 393.028v0.018c-7.731 0-13.98 6.268-13.98 13.98v1.066c0 7.731 6.268 13.98 13.98 13.98h163.174c1.644 0 3.215-0.307 4.696-0.813l-15.208-28.231h-152.662z" />
<glyph unicode="&#xe943;" glyph-name="power-analyzer-2" d="M318.617 492.135h-167.455c-7.586 0-13.745-6.159-13.745-13.745s6.159-13.745 13.745-13.745h167.473c7.586 0 13.727 6.159 13.727 13.745s-6.159 13.745-13.745 13.745zM332.362 408.272c0 7.586-6.159 13.745-13.745 13.745h-167.455c-7.586 0-13.745-6.159-13.745-13.745s6.159-13.745 13.745-13.745h167.473c7.586 0 13.727 6.141 13.727 13.745zM194.006 320.978h77.053v-30.074h-77.053v30.074zM704.462 554.829c-107.56 0-195.072-87.511-195.072-195.072s87.511-195.072 195.072-195.072 195.072 87.511 195.072 195.072c0 107.578-87.511 195.072-195.072 195.072zM704.462 186.288c-95.657 0-173.487 77.83-173.487 173.487s77.83 173.487 173.487 173.487c95.657 0 173.487-77.83 173.487-173.487 0-95.675-77.83-173.487-173.487-173.487zM965.226 564.582h-65.692v48.804h-242.756v119.355h-333.41v-118.434h-247.29v-61.899h-64.518v-74.127h64.518v-65.114h-64.518v-74.127h64.518v-110.794h320.243v57.835h101.239v6.791c-1.499 4.877-2.836 9.808-3.992 14.793h-118.831v-57.835h-277.074v342.911h247.29v118.434h290.241v-119.355h242.774v-96.651c8.038-9.952 15.172-20.555 21.35-31.735 0-0.018 0.018-0.018 0.018-0.036 0.072-0.126 0.144-0.253 0.217-0.379v0.379h65.674v101.184zM534.063 492.117h-125.984c-7.586 0-13.745-6.159-13.745-13.745s6.159-13.745 13.745-13.745h107.741c5.383 9.627 11.469 18.803 18.243 27.491zM394.334 408.272c0-7.586 6.159-13.745 13.745-13.745h82.942c1.571 9.302 3.757 18.46 6.52 27.473h-89.462c-7.586 0-13.745-6.141-13.745-13.727zM920.756 407.73c3.847-16.364 5.78-33.162 5.78-50.249 0-8.742-0.524-17.394-1.535-25.973h42.374v76.222h-46.619zM817.712 302.933c-1.878 2.366-4.028 4.497-6.43 6.34l-55.198 54.421 46.311 47.756c2.005 1.662 3.811 3.54 5.419 5.581l0.126 0.144-0.018 0.018c4.841 6.213 7.749 13.998 7.749 22.469 0 20.23-16.4 36.612-36.612 36.612-8.796 0-16.87-3.107-23.192-8.291l-0.018-0.018c-2.113-1.734-3.992-3.703-5.672-5.852l-45.733-47.233-43.385 44.794c-2.565 3.919-5.852 7.315-9.699 10.006l-0.054 0.054v-0.018c-5.924 4.136-13.113 6.575-20.898 6.575-20.23 0-36.612-16.4-36.612-36.612 0-9.519 3.667-18.153 9.609-24.673l-0.018-0.036 0.741-0.759c0.235-0.235 0.452-0.47 0.686-0.704l48.66-49.617-55.325-55.090c-2.041-1.644-3.919-3.504-5.563-5.545l-0.054-0.054c-5.057-6.286-8.092-14.251-8.092-22.939 0-20.23 16.4-36.612 36.612-36.612 8.146 0 15.66 2.691 21.747 7.207l0.036-0.036 0.199 0.199c2.764 2.077 5.22 4.534 7.279 7.279l54.169 54.169 53.771-52.037c3.034-4.696 7.098-8.616 11.885-11.506l0.126-0.126 0.018 0.036c5.473-3.269 11.867-5.184 18.712-5.184 20.23 0 36.612 16.4 36.612 36.612-0.018 8.525-2.944 16.328-7.785 22.56l-0.108 0.108z" />
<glyph unicode="&#xe944;" d="M819.283 592.236c-9.013 16.942-25.775 27.057-44.848 27.057-0.018 0-0.036 0-0.054 0-19.11-0.018-35.872-10.169-44.866-27.166l-191.676-362.346c-8.345-15.768-7.821-34.282 1.373-49.545 9.085-15.1 24.98-24.095 42.5-24.095h386.097c17.611 0 33.578 9.067 42.699 24.239 9.23 15.353 9.717 33.975 1.3 49.797l-192.525 362.057z" />
<glyph unicode="&#xe945;" d="M339.876 487.186h-177.208c-8.038 0-14.54-6.502-14.54-14.54s6.502-14.54 14.54-14.54h177.208c8.038 0 14.54 6.502 14.54 14.54s-6.502 14.54-14.54 14.54z" />
<glyph unicode="&#xe946;" d="M354.416 398.446c0 8.038-6.502 14.54-14.54 14.54h-177.208c-8.038 0-14.54-6.502-14.54-14.54s6.502-14.54 14.54-14.54h177.208c8.038 0 14.54 6.52 14.54 14.54z" />
<glyph unicode="&#xe947;" d="M614.133 472.664c0 8.038-6.502 14.54-14.54 14.54h-177.208c-8.038 0-14.54-6.502-14.54-14.54s6.502-14.54 14.54-14.54h177.208c8.020 0 14.54 6.502 14.54 14.54z" />
<glyph unicode="&#xe948;" d="M200.292 304.613h81.533v-32.855h-81.533v32.855z" />
<glyph unicode="&#xe949;" d="M948.464 395.376l41.037-80.648h29.207v80.648z" />
<glyph unicode="&#xe94a;" d="M773.73 495.693c-16.87 0-30.525-13.8-30.525-30.814 0-1.644 0.126-3.251 0.379-4.823l11.939-153.908c0.813-9.121 8.381-16.274 17.629-16.274s16.834 7.153 17.629 16.274l13.023 153.529c0.289 1.698 0.433 3.432 0.433 5.202 0.018 17.015-13.655 30.814-30.507 30.814z" />
<glyph unicode="&#xe94b;" d="M801.636 244.9c0-15.223-12.227-27.563-27.31-27.563s-27.31 12.34-27.31 27.563c0 15.223 12.227 27.563 27.31 27.563s27.31-12.34 27.31-27.563z" />
<glyph unicode="&#xe94c;" d="M422.366 412.986c-8.020 0-14.54-6.502-14.54-14.54s6.502-14.54 14.54-14.54h170.543l15.154 26.335c-2.384 1.716-5.31 2.745-8.489 2.745h-177.208z" />
<glyph unicode="&#xe94d;" d="M855.642 589.978v0.199h68.402v-134.708h92.334v109.692h-69.503v47.847l-115.941-0.036 13.673-22.993z" />
<glyph unicode="&#xe94e;" d="M521.835 289.531v-0.054h-130.283v-61.213h-293.222v362.888h261.685v125.316h307.148v-126.291h38.021v-0.199l13.98 22.993h-13.98v0.036h-15.19v126.291h-352.809v-125.316h-261.685v-65.512h-68.275v-78.444h68.275v-68.907h-68.275v-78.444h68.275v-117.242h338.883v61.213h107.452v-0.108h5.906l14.919 22.993z" />
</font>
</defs>
</svg>
